<?xml version='1.0' encoding='utf-8'?>
<mlt LC_NUMERIC="en_US.UTF-8" producer="main_bin" root="F:/Repo/Digitizacija/Lab3" version="7.28.0">
 <profile colorspace="709" description="4K UHD 2160p 60 fps" display_aspect_den="9" display_aspect_num="16" frame_rate_den="1" frame_rate_num="60" height="2160" progressive="1" sample_aspect_den="1" sample_aspect_num="1" width="3840"/>
 <producer id="producer8" in="00:00:00.000" out="00:00:00.400">
  <property name="length">25</property>
  <property name="eof">pause</property>
  <property name="resource">C:/Users/Beqir/AppData/Local/kdenlive/cache/1733432264654/preview/75.mkv</property>
  <property name="audio_index">-1</property>
  <property name="video_index">0</property>
  <property name="mute_on_pause">0</property>
  <property name="mlt_service">avformat-novalidate</property>
  <property name="meta.media.nb_streams">1</property>
  <property name="meta.media.0.stream.type">video</property>
  <property name="meta.media.0.stream.frame_rate">60</property>
  <property name="meta.media.0.stream.sample_aspect_ratio">1</property>
  <property name="meta.media.0.codec.width">3840</property>
  <property name="meta.media.0.codec.height">2160</property>
  <property name="meta.media.0.codec.rotate">0</property>
  <property name="meta.media.0.codec.pix_fmt">yuv420p</property>
  <property name="meta.media.0.codec.sample_aspect_ratio">1</property>
  <property name="meta.media.0.codec.colorspace">709</property>
  <property name="meta.media.0.codec.color_trc">1</property>
  <property name="meta.media.0.codec.name">h264</property>
  <property name="meta.media.0.codec.long_name">H.264 / AVC / MPEG-4 AVC / MPEG-4 part 10</property>
  <property name="meta.media.0.codec.bit_rate">0</property>
  <property name="meta.attr.0.stream.DURATION.markup">00:00:00.417000000</property>
  <property name="meta.attr.ENCODER.markup">Lavf61.7.100</property>
  <property name="seekable">1</property>
  <property name="meta.media.sample_aspect_num">1</property>
  <property name="meta.media.sample_aspect_den">1</property>
  <property name="aspect_ratio">1</property>
  <property name="format">3</property>
  <property name="vstream">0</property>
  <property name="meta.media.frame_rate_num">60</property>
  <property name="meta.media.frame_rate_den">1</property>
  <property name="meta.media.colorspace">709</property>
  <property name="meta.media.color_trc">1</property>
  <property name="meta.media.has_b_frames">0</property>
  <property name="meta.media.width">3840</property>
  <property name="meta.media.height">2160</property>
  <property name="meta.media.aspect_ratio">1</property>
  <property name="meta.media.color_range">mpeg</property>
  <property name="meta.media.top_field_first">0</property>
  <property name="meta.media.progressive">1</property>
  <property name="kdenlive:id">4</property>
  <property name="kdenlive:control_uuid">{1be1c7ab-c333-4e50-9ca3-067d4b3bb068}</property>
  <property name="kdenlive:clip_type">2</property>
  <property name="kdenlive:file_size">281166</property>
  <property name="kdenlive:file_hash">250f725162dbf8a7810cdacc6547cc44</property>
  <property name="kdenlive:folderid">-1</property>
 </producer>
 <chain id="chain8" out="00:00:41.267">
  <property name="length">2477</property>
  <property name="eof">pause</property>
  <property name="resource">final.mp4</property>
  <property name="mlt_service">avformat-novalidate</property>
  <property name="meta.media.nb_streams">2</property>
  <property name="meta.media.0.stream.type">video</property>
  <property name="meta.media.0.stream.frame_rate">60</property>
  <property name="meta.media.0.stream.sample_aspect_ratio">1</property>
  <property name="meta.media.0.codec.width">3840</property>
  <property name="meta.media.0.codec.height">2160</property>
  <property name="meta.media.0.codec.rotate">0</property>
  <property name="meta.media.0.codec.pix_fmt">yuv420p</property>
  <property name="meta.media.0.codec.sample_aspect_ratio">1</property>
  <property name="meta.media.0.codec.colorspace">709</property>
  <property name="meta.media.0.codec.color_trc">1</property>
  <property name="meta.media.0.codec.name">hevc</property>
  <property name="meta.media.0.codec.long_name">HEVC (High Efficiency Video Coding)</property>
  <property name="meta.media.0.codec.bit_rate">3562856</property>
  <property name="meta.attr.0.stream.handler_name.markup">VideoHandler</property>
  <property name="meta.attr.0.stream.vendor_id.markup">[0][0][0][0]</property>
  <property name="meta.media.1.stream.type">audio</property>
  <property name="meta.media.1.codec.sample_fmt">fltp</property>
  <property name="meta.media.1.codec.sample_rate">48000</property>
  <property name="meta.media.1.codec.channels">2</property>
  <property name="meta.media.1.codec.layout">stereo</property>
  <property name="meta.media.1.codec.name">aac</property>
  <property name="meta.media.1.codec.long_name">AAC (Advanced Audio Coding)</property>
  <property name="meta.media.1.codec.bit_rate">2276</property>
  <property name="meta.attr.1.stream.handler_name.markup">SoundHandler</property>
  <property name="meta.attr.1.stream.vendor_id.markup">[0][0][0][0]</property>
  <property name="meta.attr.major_brand.markup">isom</property>
  <property name="meta.attr.minor_version.markup">512</property>
  <property name="meta.attr.compatible_brands.markup">isomiso2mp41</property>
  <property name="meta.attr.encoder.markup">Lavf61.7.100</property>
  <property name="seekable">1</property>
  <property name="meta.media.sample_aspect_num">1</property>
  <property name="meta.media.sample_aspect_den">1</property>
  <property name="audio_index">1</property>
  <property name="video_index">0</property>
  <property name="vstream">0</property>
  <property name="meta.media.frame_rate_num">60</property>
  <property name="meta.media.frame_rate_den">1</property>
  <property name="meta.media.colorspace">709</property>
  <property name="meta.media.color_trc">1</property>
  <property name="meta.media.has_b_frames">2</property>
  <property name="meta.media.width">3840</property>
  <property name="meta.media.height">2160</property>
  <property name="meta.media.aspect_ratio">1</property>
  <property name="meta.media.color_range">mpeg</property>
  <property name="astream">0</property>
  <property name="meta.media.top_field_first">0</property>
  <property name="meta.media.progressive">1</property>
  <property name="kdenlive:folderid">-1</property>
  <property name="kdenlive:id">7</property>
  <property name="kdenlive:control_uuid">{54f9342b-c9c9-48e7-a2d9-034be03d503c}</property>
  <property name="mute_on_pause">0</property>
  <property name="kdenlive:clip_type">0</property>
  <property name="kdenlive:file_size">18458505</property>
  <property name="kdenlive:file_hash">7003d848cf63a66b205aa0f81ef41113</property>
  <property name="kdenlive:audio_max1">1</property>
  <property name="kdenlive:monitorPosition">745</property>
 </chain>
 <chain id="chain11" out="00:00:25.567">
  <property name="length">1535</property>
  <property name="eof">pause</property>
  <property name="resource">UNEDITED_VIDEOS/18284817-uhd_3840_2160_60fps.mp4</property>
  <property name="mlt_service">avformat-novalidate</property>
  <property name="meta.media.nb_streams">2</property>
  <property name="meta.media.0.stream.type">video</property>
  <property name="meta.media.0.stream.frame_rate">59.9401</property>
  <property name="meta.media.0.stream.sample_aspect_ratio">0</property>
  <property name="meta.media.0.codec.width">3840</property>
  <property name="meta.media.0.codec.height">2160</property>
  <property name="meta.media.0.codec.rotate">0</property>
  <property name="meta.media.0.codec.pix_fmt">yuv420p</property>
  <property name="meta.media.0.codec.sample_aspect_ratio">0</property>
  <property name="meta.media.0.codec.colorspace">709</property>
  <property name="meta.media.0.codec.color_trc">1</property>
  <property name="meta.media.0.codec.name">h264</property>
  <property name="meta.media.0.codec.long_name">H.264 / AVC / MPEG-4 AVC / MPEG-4 part 10</property>
  <property name="meta.media.0.codec.bit_rate">24692673</property>
  <property name="meta.attr.0.stream.creation_time.markup">2023-09-07T09:57:46.000000Z</property>
  <property name="meta.attr.0.stream.handler_name.markup">Vimeo Artax Video Handler</property>
  <property name="meta.attr.0.stream.vendor_id.markup">[0][0][0][0]</property>
  <property name="meta.attr.0.stream.encoder.markup">AVC Coding</property>
  <property name="meta.media.1.stream.type">audio</property>
  <property name="meta.media.1.codec.sample_fmt">fltp</property>
  <property name="meta.media.1.codec.sample_rate">48000</property>
  <property name="meta.media.1.codec.channels">2</property>
  <property name="meta.media.1.codec.layout">stereo</property>
  <property name="meta.media.1.codec.name">aac</property>
  <property name="meta.media.1.codec.long_name">AAC (Advanced Audio Coding)</property>
  <property name="meta.media.1.codec.bit_rate">189502</property>
  <property name="meta.attr.1.stream.creation_time.markup">2023-09-07T09:57:46.000000Z</property>
  <property name="meta.attr.1.stream.handler_name.markup">Vimeo Artax Audio Handler</property>
  <property name="meta.attr.1.stream.vendor_id.markup">[0][0][0][0]</property>
  <property name="meta.attr.major_brand.markup">mp42</property>
  <property name="meta.attr.minor_version.markup">0</property>
  <property name="meta.attr.compatible_brands.markup">mp42isomavc1</property>
  <property name="meta.attr.creation_time.markup">2023-09-07T09:57:46.000000Z</property>
  <property name="seekable">1</property>
  <property name="meta.media.sample_aspect_num">1</property>
  <property name="meta.media.sample_aspect_den">1</property>
  <property name="audio_index">1</property>
  <property name="video_index">0</property>
  <property name="vstream">0</property>
  <property name="meta.media.frame_rate_num">60000</property>
  <property name="meta.media.frame_rate_den">1001</property>
  <property name="meta.media.colorspace">709</property>
  <property name="meta.media.color_trc">1</property>
  <property name="meta.media.has_b_frames">2</property>
  <property name="meta.media.width">3840</property>
  <property name="meta.media.height">2160</property>
  <property name="meta.media.aspect_ratio">1</property>
  <property name="meta.media.color_range">mpeg</property>
  <property name="astream">0</property>
  <property name="meta.media.top_field_first">0</property>
  <property name="meta.media.progressive">1</property>
  <property name="kdenlive:folderid">5</property>
  <property name="kdenlive:id">8</property>
  <property name="kdenlive:control_uuid">{fd83b2b8-1eca-4da0-84fe-0d1a5329d305}</property>
  <property name="mute_on_pause">0</property>
  <property name="kdenlive:clip_type">0</property>
  <property name="kdenlive:file_size">79415446</property>
  <property name="kdenlive:file_hash">7b5a098fa3b4d53e893d97ff634916fe</property>
  <property name="kdenlive:audio_max1">121</property>
  <property name="kdenlive:monitorPosition">828</property>
 </chain>
 <chain id="chain12" out="00:00:36.567">
  <property name="length">2195</property>
  <property name="eof">pause</property>
  <property name="resource">UNEDITED_VIDEOS/18284892-uhd_3840_2160_60fps.mp4</property>
  <property name="mlt_service">avformat-novalidate</property>
  <property name="meta.media.nb_streams">2</property>
  <property name="meta.media.0.stream.type">video</property>
  <property name="meta.media.0.stream.frame_rate">59.9401</property>
  <property name="meta.media.0.stream.sample_aspect_ratio">0</property>
  <property name="meta.media.0.codec.width">3840</property>
  <property name="meta.media.0.codec.height">2160</property>
  <property name="meta.media.0.codec.rotate">0</property>
  <property name="meta.media.0.codec.pix_fmt">yuv420p</property>
  <property name="meta.media.0.codec.sample_aspect_ratio">0</property>
  <property name="meta.media.0.codec.colorspace">709</property>
  <property name="meta.media.0.codec.color_trc">1</property>
  <property name="meta.media.0.codec.name">h264</property>
  <property name="meta.media.0.codec.long_name">H.264 / AVC / MPEG-4 AVC / MPEG-4 part 10</property>
  <property name="meta.media.0.codec.bit_rate">24706557</property>
  <property name="meta.attr.0.stream.creation_time.markup">2023-09-07T10:14:02.000000Z</property>
  <property name="meta.attr.0.stream.handler_name.markup">Vimeo Artax Video Handler</property>
  <property name="meta.attr.0.stream.vendor_id.markup">[0][0][0][0]</property>
  <property name="meta.attr.0.stream.encoder.markup">AVC Coding</property>
  <property name="meta.media.1.stream.type">audio</property>
  <property name="meta.media.1.codec.sample_fmt">fltp</property>
  <property name="meta.media.1.codec.sample_rate">48000</property>
  <property name="meta.media.1.codec.channels">2</property>
  <property name="meta.media.1.codec.layout">stereo</property>
  <property name="meta.media.1.codec.name">aac</property>
  <property name="meta.media.1.codec.long_name">AAC (Advanced Audio Coding)</property>
  <property name="meta.media.1.codec.bit_rate">189439</property>
  <property name="meta.attr.1.stream.creation_time.markup">2023-09-07T10:14:02.000000Z</property>
  <property name="meta.attr.1.stream.handler_name.markup">Vimeo Artax Audio Handler</property>
  <property name="meta.attr.1.stream.vendor_id.markup">[0][0][0][0]</property>
  <property name="meta.attr.major_brand.markup">mp42</property>
  <property name="meta.attr.minor_version.markup">0</property>
  <property name="meta.attr.compatible_brands.markup">mp42isomavc1</property>
  <property name="meta.attr.creation_time.markup">2023-09-07T10:14:02.000000Z</property>
  <property name="seekable">1</property>
  <property name="meta.media.sample_aspect_num">1</property>
  <property name="meta.media.sample_aspect_den">1</property>
  <property name="audio_index">1</property>
  <property name="video_index">0</property>
  <property name="vstream">0</property>
  <property name="meta.media.frame_rate_num">60000</property>
  <property name="meta.media.frame_rate_den">1001</property>
  <property name="meta.media.colorspace">709</property>
  <property name="meta.media.color_trc">1</property>
  <property name="meta.media.has_b_frames">2</property>
  <property name="meta.media.width">3840</property>
  <property name="meta.media.height">2160</property>
  <property name="meta.media.aspect_ratio">1</property>
  <property name="meta.media.color_range">mpeg</property>
  <property name="astream">0</property>
  <property name="meta.media.top_field_first">0</property>
  <property name="meta.media.progressive">1</property>
  <property name="kdenlive:folderid">5</property>
  <property name="kdenlive:id">9</property>
  <property name="kdenlive:control_uuid">{d5ef3e5e-6803-422b-afad-056d48532600}</property>
  <property name="mute_on_pause">0</property>
  <property name="kdenlive:clip_type">0</property>
  <property name="kdenlive:file_size">113729717</property>
  <property name="kdenlive:file_hash">3fca09744cc32990beb0b7ce1aeb83b9</property>
  <property name="kdenlive:audio_max1">117</property>
  <property name="kdenlive:monitorPosition">0</property>
 </chain>
 <chain id="chain10" out="00:00:18.567">
  <property name="length">1115</property>
  <property name="eof">pause</property>
  <property name="resource">UNEDITED_VIDEOS/18330199-uhd_3840_2160_60fps.mp4</property>
  <property name="mlt_service">avformat-novalidate</property>
  <property name="meta.media.nb_streams">2</property>
  <property name="meta.media.0.stream.type">video</property>
  <property name="meta.media.0.stream.frame_rate">59.9401</property>
  <property name="meta.media.0.stream.sample_aspect_ratio">0</property>
  <property name="meta.media.0.codec.width">3840</property>
  <property name="meta.media.0.codec.height">2160</property>
  <property name="meta.media.0.codec.rotate">0</property>
  <property name="meta.media.0.codec.pix_fmt">yuv420p</property>
  <property name="meta.media.0.codec.sample_aspect_ratio">0</property>
  <property name="meta.media.0.codec.colorspace">709</property>
  <property name="meta.media.0.codec.color_trc">1</property>
  <property name="meta.media.0.codec.name">h264</property>
  <property name="meta.media.0.codec.long_name">H.264 / AVC / MPEG-4 AVC / MPEG-4 part 10</property>
  <property name="meta.media.0.codec.bit_rate">8936540</property>
  <property name="meta.attr.0.stream.creation_time.markup">2023-09-11T08:56:02.000000Z</property>
  <property name="meta.attr.0.stream.handler_name.markup">Vimeo Artax Video Handler</property>
  <property name="meta.attr.0.stream.vendor_id.markup">[0][0][0][0]</property>
  <property name="meta.attr.0.stream.encoder.markup">AVC Coding</property>
  <property name="meta.media.1.stream.type">audio</property>
  <property name="meta.media.1.codec.sample_fmt">fltp</property>
  <property name="meta.media.1.codec.sample_rate">48000</property>
  <property name="meta.media.1.codec.channels">2</property>
  <property name="meta.media.1.codec.layout">stereo</property>
  <property name="meta.media.1.codec.name">aac</property>
  <property name="meta.media.1.codec.long_name">AAC (Advanced Audio Coding)</property>
  <property name="meta.media.1.codec.bit_rate">189389</property>
  <property name="meta.attr.1.stream.creation_time.markup">2023-09-11T08:56:02.000000Z</property>
  <property name="meta.attr.1.stream.handler_name.markup">Vimeo Artax Audio Handler</property>
  <property name="meta.attr.1.stream.vendor_id.markup">[0][0][0][0]</property>
  <property name="meta.attr.major_brand.markup">mp42</property>
  <property name="meta.attr.minor_version.markup">0</property>
  <property name="meta.attr.compatible_brands.markup">mp42isomavc1</property>
  <property name="meta.attr.creation_time.markup">2023-09-11T08:56:02.000000Z</property>
  <property name="seekable">1</property>
  <property name="meta.media.sample_aspect_num">1</property>
  <property name="meta.media.sample_aspect_den">1</property>
  <property name="audio_index">1</property>
  <property name="video_index">0</property>
  <property name="vstream">0</property>
  <property name="meta.media.frame_rate_num">60000</property>
  <property name="meta.media.frame_rate_den">1001</property>
  <property name="meta.media.colorspace">709</property>
  <property name="meta.media.color_trc">1</property>
  <property name="meta.media.has_b_frames">2</property>
  <property name="meta.media.width">3840</property>
  <property name="meta.media.height">2160</property>
  <property name="meta.media.aspect_ratio">1</property>
  <property name="meta.media.color_range">mpeg</property>
  <property name="astream">0</property>
  <property name="meta.media.top_field_first">0</property>
  <property name="meta.media.progressive">1</property>
  <property name="kdenlive:folderid">5</property>
  <property name="kdenlive:id">10</property>
  <property name="kdenlive:control_uuid">{68ea5df0-940d-4ba8-b48a-6d362421bd23}</property>
  <property name="mute_on_pause">0</property>
  <property name="kdenlive:clip_type">0</property>
  <property name="kdenlive:file_size">21144821</property>
  <property name="kdenlive:file_hash">d01a00a987b32fe7e4703fa897da6888</property>
  <property name="kdenlive:audio_max1">86</property>
  <property name="kdenlive:monitorPosition">313</property>
 </chain>
 <chain id="chain9" out="00:00:28.567">
  <property name="length">1715</property>
  <property name="eof">pause</property>
  <property name="resource">UNEDITED_VIDEOS/18366924-uhd_3840_2160_60fps.mp4</property>
  <property name="mlt_service">avformat-novalidate</property>
  <property name="meta.media.nb_streams">2</property>
  <property name="meta.media.0.stream.type">video</property>
  <property name="meta.media.0.stream.frame_rate">59.9401</property>
  <property name="meta.media.0.stream.sample_aspect_ratio">0</property>
  <property name="meta.media.0.codec.width">3840</property>
  <property name="meta.media.0.codec.height">2160</property>
  <property name="meta.media.0.codec.rotate">0</property>
  <property name="meta.media.0.codec.pix_fmt">yuv420p</property>
  <property name="meta.media.0.codec.sample_aspect_ratio">0</property>
  <property name="meta.media.0.codec.colorspace">709</property>
  <property name="meta.media.0.codec.color_trc">1</property>
  <property name="meta.media.0.codec.name">h264</property>
  <property name="meta.media.0.codec.long_name">H.264 / AVC / MPEG-4 AVC / MPEG-4 part 10</property>
  <property name="meta.media.0.codec.bit_rate">9910446</property>
  <property name="meta.attr.0.stream.creation_time.markup">2023-09-14T08:58:31.000000Z</property>
  <property name="meta.attr.0.stream.handler_name.markup">Vimeo Artax Video Handler</property>
  <property name="meta.attr.0.stream.vendor_id.markup">[0][0][0][0]</property>
  <property name="meta.attr.0.stream.encoder.markup">AVC Coding</property>
  <property name="meta.media.1.stream.type">audio</property>
  <property name="meta.media.1.codec.sample_fmt">fltp</property>
  <property name="meta.media.1.codec.sample_rate">48000</property>
  <property name="meta.media.1.codec.channels">2</property>
  <property name="meta.media.1.codec.layout">stereo</property>
  <property name="meta.media.1.codec.name">aac</property>
  <property name="meta.media.1.codec.long_name">AAC (Advanced Audio Coding)</property>
  <property name="meta.media.1.codec.bit_rate">189375</property>
  <property name="meta.attr.1.stream.creation_time.markup">2023-09-14T08:58:31.000000Z</property>
  <property name="meta.attr.1.stream.handler_name.markup">Vimeo Artax Audio Handler</property>
  <property name="meta.attr.1.stream.vendor_id.markup">[0][0][0][0]</property>
  <property name="meta.attr.major_brand.markup">mp42</property>
  <property name="meta.attr.minor_version.markup">0</property>
  <property name="meta.attr.compatible_brands.markup">mp42isomavc1</property>
  <property name="meta.attr.creation_time.markup">2023-09-14T08:58:31.000000Z</property>
  <property name="seekable">1</property>
  <property name="meta.media.sample_aspect_num">1</property>
  <property name="meta.media.sample_aspect_den">1</property>
  <property name="audio_index">1</property>
  <property name="video_index">0</property>
  <property name="vstream">0</property>
  <property name="meta.media.frame_rate_num">60000</property>
  <property name="meta.media.frame_rate_den">1001</property>
  <property name="meta.media.colorspace">709</property>
  <property name="meta.media.color_trc">1</property>
  <property name="meta.media.has_b_frames">2</property>
  <property name="meta.media.width">3840</property>
  <property name="meta.media.height">2160</property>
  <property name="meta.media.aspect_ratio">1</property>
  <property name="meta.media.color_range">mpeg</property>
  <property name="astream">0</property>
  <property name="meta.media.top_field_first">0</property>
  <property name="meta.media.progressive">1</property>
  <property name="kdenlive:folderid">5</property>
  <property name="kdenlive:id">11</property>
  <property name="kdenlive:control_uuid">{9872f63e-4c6a-48d0-8b06-af59d1aad6ab}</property>
  <property name="mute_on_pause">0</property>
  <property name="kdenlive:clip_type">0</property>
  <property name="kdenlive:file_size">36042314</property>
  <property name="kdenlive:file_hash">982ad390905b08c5f92298b6535b361c</property>
  <property name="kdenlive:audio_max1">130</property>
  <property name="kdenlive:monitorPosition">0</property>
 </chain>
 <producer id="producer1" in="00:00:00.000" out="00:00:06.983">
  <property name="length">420</property>
  <property name="eof">pause</property>
  <property name="resource">0x000000ff</property>
  <property name="aspect_ratio">1</property>
  <property name="mlt_service">color</property>
  <property name="kdenlive:clipname">Color Clip</property>
  <property name="kdenlive:duration">00:00:06:00</property>
  <property name="xml">was here</property>
  <property name="seekable">1</property>
  <property name="kdenlive:folderid">-1</property>
  <property name="kdenlive:id">12</property>
  <property name="kdenlive:control_uuid">{1e2a9044-caca-4e63-b885-fb363151e26b}</property>
  <property name="mlt_image_format">rgb</property>
  <property name="kdenlive:clip_type">2</property>
  <property name="kdenlive:file_hash">9196813120dc5c505072516b15baf414</property>
  <property name="kdenlive:monitorPosition">0</property>
 </producer>
 <producer id="producer2" in="00:00:00.000" out="00:00:05.733">
  <property name="length">345</property>
  <property name="eof">pause</property>
  <property name="resource"/>
  <property name="meta.media.progressive">1</property>
  <property name="aspect_ratio">1</property>
  <property name="seekable">1</property>
  <property name="mlt_service">kdenlivetitle</property>
  <property name="kdenlive:duration">00:00:05:00</property>
  <property name="kdenlive:clipname">Laboratory E...</property>
  <property name="xmldata">&lt;kdenlivetitle LC_NUMERIC="C" duration="300" height="2160" out="299" width="3840">
 &lt;item type="QGraphicsTextItem" z-index="0">
  &lt;position x="1000" y="900">
   &lt;transform zoom="175">1.75,0,0,0,1.75,0,0,0,1&lt;/transform>
  &lt;/position>
  &lt;content alignment="1" box-height="144" box-width="1087" font="Segoe UI" font-color="0,0,0,255" font-italic="0" font-outline="2" font-outline-color="0,0,0,255" font-pixel-size="108" font-underline="0" font-weight="700" gradient="#ffffffff;#ff00aaff;54;100;90" letter-spacing="0" line-spacing="0" shadow="0;#64000000;3;3;3" tab-width="80" typewriter="0;2;1;0;0">Laboratory Exercise 3&lt;/content>
 &lt;/item>
 &lt;startviewport rect="0,0,3840,2160"/>
 &lt;endviewport rect="0,0,3840,2160"/>
 &lt;background color="0,0,0,0"/>
&lt;/kdenlivetitle>
</property>
  <property name="xml">was here</property>
  <property name="kdenlive:folderid">-1</property>
  <property name="kdenlive:id">13</property>
  <property name="kdenlive:control_uuid">{b800c0a9-b8f9-4a2f-907b-16a0204cc3a5}</property>
  <property name="kdenlive:clip_type">2</property>
  <property name="kdenlive:uniqueId">{d13bc1eb-53ff-4176-9beb-5cf4407dc4d2}</property>
  <property name="kdenlive:file_hash">2f2b5ee2f464b8cd947a5b639c70acfe</property>
  <property name="force_reload">0</property>
  <property name="meta.media.width">3840</property>
  <property name="meta.media.height">2160</property>
  <property name="kdenlive:monitorPosition">0</property>
 </producer>
 <producer id="producer0" in="00:00:00.000" out="00:05:36.417">
  <property name="length">2147483647</property>
  <property name="eof">continue</property>
  <property name="resource">black</property>
  <property name="aspect_ratio">1</property>
  <property name="mlt_service">color</property>
  <property name="kdenlive:playlistid">black_track</property>
  <property name="mlt_image_format">rgba</property>
  <property name="set.test_audio">0</property>
 </producer>
 <playlist id="playlist0">
  <property name="kdenlive:audio_track">1</property>
 </playlist>
 <playlist id="playlist1">
  <property name="kdenlive:audio_track">1</property>
 </playlist>
 <tractor id="tractor0" in="00:00:00.000">
  <property name="kdenlive:audio_track">1</property>
  <property name="kdenlive:trackheight">92</property>
  <property name="kdenlive:timeline_active">1</property>
  <property name="kdenlive:collapsed">0</property>
  <property name="kdenlive:thumbs_format"/>
  <property name="kdenlive:audio_rec"/>
  <track hide="video" producer="playlist0"/>
  <track hide="video" producer="playlist1"/>
  <filter id="filter0">
   <property name="window">75</property>
   <property name="max_gain">20dB</property>
   <property name="mlt_service">volume</property>
   <property name="internal_added">237</property>
   <property name="disable">1</property>
  </filter>
  <filter id="filter1">
   <property name="channel">-1</property>
   <property name="mlt_service">panner</property>
   <property name="internal_added">237</property>
   <property name="start">0.5</property>
   <property name="disable">1</property>
  </filter>
  <filter id="filter2">
   <property name="iec_scale">0</property>
   <property name="mlt_service">audiolevel</property>
   <property name="dbpeak">1</property>
   <property name="disable">1</property>
  </filter>
 </tractor>
 <chain id="chain0" out="00:00:36.567">
  <property name="length">2195</property>
  <property name="eof">pause</property>
  <property name="resource">UNEDITED_VIDEOS/18284892-uhd_3840_2160_60fps.mp4</property>
  <property name="mlt_service">avformat-novalidate</property>
  <property name="seekable">1</property>
  <property name="audio_index">1</property>
  <property name="video_index">0</property>
  <property name="vstream">0</property>
  <property name="astream">0</property>
  <property name="kdenlive:folderid">5</property>
  <property name="kdenlive:id">9</property>
  <property name="kdenlive:control_uuid">{d5ef3e5e-6803-422b-afad-056d48532600}</property>
  <property name="mute_on_pause">0</property>
  <property name="kdenlive:clip_type">0</property>
  <property name="kdenlive:file_size">113729717</property>
  <property name="kdenlive:file_hash">3fca09744cc32990beb0b7ce1aeb83b9</property>
  <property name="kdenlive:audio_max1">117</property>
  <property name="meta.media.nb_streams">2</property>
  <property name="meta.media.0.stream.type">video</property>
  <property name="meta.media.0.stream.frame_rate">59.9401</property>
  <property name="meta.media.0.stream.sample_aspect_ratio">0</property>
  <property name="meta.media.0.codec.width">3840</property>
  <property name="meta.media.0.codec.height">2160</property>
  <property name="meta.media.0.codec.rotate">0</property>
  <property name="meta.media.0.codec.pix_fmt">yuv420p</property>
  <property name="meta.media.0.codec.sample_aspect_ratio">0</property>
  <property name="meta.media.0.codec.colorspace">709</property>
  <property name="meta.media.0.codec.color_trc">1</property>
  <property name="meta.media.0.codec.name">h264</property>
  <property name="meta.media.0.codec.long_name">H.264 / AVC / MPEG-4 AVC / MPEG-4 part 10</property>
  <property name="meta.media.0.codec.bit_rate">24706557</property>
  <property name="meta.attr.0.stream.creation_time.markup">2023-09-07T10:14:02.000000Z</property>
  <property name="meta.attr.0.stream.handler_name.markup">Vimeo Artax Video Handler</property>
  <property name="meta.attr.0.stream.vendor_id.markup">[0][0][0][0]</property>
  <property name="meta.attr.0.stream.encoder.markup">AVC Coding</property>
  <property name="meta.media.1.stream.type">audio</property>
  <property name="meta.media.1.codec.sample_fmt">fltp</property>
  <property name="meta.media.1.codec.sample_rate">48000</property>
  <property name="meta.media.1.codec.channels">2</property>
  <property name="meta.media.1.codec.layout">stereo</property>
  <property name="meta.media.1.codec.name">aac</property>
  <property name="meta.media.1.codec.long_name">AAC (Advanced Audio Coding)</property>
  <property name="meta.media.1.codec.bit_rate">189439</property>
  <property name="meta.attr.1.stream.creation_time.markup">2023-09-07T10:14:02.000000Z</property>
  <property name="meta.attr.1.stream.handler_name.markup">Vimeo Artax Audio Handler</property>
  <property name="meta.attr.1.stream.vendor_id.markup">[0][0][0][0]</property>
  <property name="meta.attr.major_brand.markup">mp42</property>
  <property name="meta.attr.minor_version.markup">0</property>
  <property name="meta.attr.compatible_brands.markup">mp42isomavc1</property>
  <property name="meta.attr.creation_time.markup">2023-09-07T10:14:02.000000Z</property>
  <property name="meta.media.sample_aspect_num">1</property>
  <property name="meta.media.sample_aspect_den">1</property>
  <property name="meta.media.frame_rate_num">60000</property>
  <property name="meta.media.frame_rate_den">1001</property>
  <property name="meta.media.colorspace">709</property>
  <property name="meta.media.color_trc">1</property>
  <property name="meta.media.has_b_frames">2</property>
  <property name="meta.media.width">3840</property>
  <property name="meta.media.height">2160</property>
  <property name="meta.media.aspect_ratio">1</property>
  <property name="meta.media.color_range">mpeg</property>
  <property name="xml">was here</property>
  <property name="meta.media.top_field_first">0</property>
  <property name="meta.media.progressive">1</property>
  <property name="set.test_audio">0</property>
  <property name="set.test_image">1</property>
 </chain>
 <producer id="producer3" in="00:00:00.000" out="00:00:12.767">
  <property name="length">768</property>
  <property name="eof">pause</property>
  <property name="resource">2.000000:UNEDITED_VIDEOS/18284817-uhd_3840_2160_60fps.mp4</property>
  <property name="aspect_ratio">1</property>
  <property name="meta.media.nb_streams">2</property>
  <property name="meta.media.0.stream.type">video</property>
  <property name="meta.media.0.stream.frame_rate">59.9401</property>
  <property name="meta.media.0.stream.sample_aspect_ratio">0</property>
  <property name="meta.media.0.codec.width">3840</property>
  <property name="meta.media.0.codec.height">2160</property>
  <property name="meta.media.0.codec.rotate">0</property>
  <property name="meta.media.0.codec.pix_fmt">yuv420p</property>
  <property name="meta.media.0.codec.sample_aspect_ratio">0</property>
  <property name="meta.media.0.codec.colorspace">709</property>
  <property name="meta.media.0.codec.color_trc">1</property>
  <property name="meta.media.0.codec.name">h264</property>
  <property name="meta.media.0.codec.long_name">H.264 / AVC / MPEG-4 AVC / MPEG-4 part 10</property>
  <property name="meta.media.0.codec.bit_rate">24692673</property>
  <property name="meta.attr.0.stream.creation_time.markup">2023-09-07T09:57:46.000000Z</property>
  <property name="meta.attr.0.stream.handler_name.markup">Vimeo Artax Video Handler</property>
  <property name="meta.attr.0.stream.vendor_id.markup">[0][0][0][0]</property>
  <property name="meta.attr.0.stream.encoder.markup">AVC Coding</property>
  <property name="meta.media.1.stream.type">audio</property>
  <property name="meta.media.1.codec.sample_fmt">fltp</property>
  <property name="meta.media.1.codec.sample_rate">48000</property>
  <property name="meta.media.1.codec.channels">2</property>
  <property name="meta.media.1.codec.layout">stereo</property>
  <property name="meta.media.1.codec.name">aac</property>
  <property name="meta.media.1.codec.long_name">AAC (Advanced Audio Coding)</property>
  <property name="meta.media.1.codec.bit_rate">189502</property>
  <property name="meta.attr.1.stream.creation_time.markup">2023-09-07T09:57:46.000000Z</property>
  <property name="meta.attr.1.stream.handler_name.markup">Vimeo Artax Audio Handler</property>
  <property name="meta.attr.1.stream.vendor_id.markup">[0][0][0][0]</property>
  <property name="meta.attr.major_brand.markup">mp42</property>
  <property name="meta.attr.minor_version.markup">0</property>
  <property name="meta.attr.compatible_brands.markup">mp42isomavc1</property>
  <property name="meta.attr.creation_time.markup">2023-09-07T09:57:46.000000Z</property>
  <property name="seekable">1</property>
  <property name="meta.media.sample_aspect_num">1</property>
  <property name="meta.media.sample_aspect_den">1</property>
  <property name="audio_index">1</property>
  <property name="video_index">0</property>
  <property name="warp_speed">2</property>
  <property name="warp_resource">UNEDITED_VIDEOS/18284817-uhd_3840_2160_60fps.mp4</property>
  <property name="mlt_service">timewarp</property>
  <property name="kdenlive:control_uuid">{fd83b2b8-1eca-4da0-84fe-0d1a5329d305}</property>
  <property name="vstream">0</property>
  <property name="astream">0</property>
  <property name="set.test_audio">0</property>
  <property name="set.test_image">1</property>
  <property name="kdenlive:id">8</property>
  <property name="warp_pitch">0</property>
  <property name="meta.media.frame_rate_num">60000</property>
  <property name="meta.media.frame_rate_den">1001</property>
  <property name="meta.media.colorspace">709</property>
  <property name="meta.media.color_trc">1</property>
  <property name="meta.media.has_b_frames">2</property>
  <property name="meta.media.width">3840</property>
  <property name="meta.media.height">2160</property>
  <property name="meta.media.aspect_ratio">1</property>
  <property name="meta.media.color_range">mpeg</property>
 </producer>
 <chain id="chain2" out="00:00:25.567">
  <property name="length">1535</property>
  <property name="eof">pause</property>
  <property name="resource">UNEDITED_VIDEOS/18284817-uhd_3840_2160_60fps.mp4</property>
  <property name="mlt_service">avformat-novalidate</property>
  <property name="seekable">1</property>
  <property name="audio_index">1</property>
  <property name="video_index">0</property>
  <property name="vstream">0</property>
  <property name="astream">0</property>
  <property name="kdenlive:folderid">5</property>
  <property name="kdenlive:id">8</property>
  <property name="kdenlive:control_uuid">{fd83b2b8-1eca-4da0-84fe-0d1a5329d305}</property>
  <property name="mute_on_pause">0</property>
  <property name="kdenlive:clip_type">0</property>
  <property name="kdenlive:file_size">79415446</property>
  <property name="kdenlive:file_hash">7b5a098fa3b4d53e893d97ff634916fe</property>
  <property name="kdenlive:audio_max1">121</property>
  <property name="kdenlive:monitorPosition">219</property>
  <property name="meta.media.nb_streams">2</property>
  <property name="meta.media.0.stream.type">video</property>
  <property name="meta.media.0.stream.frame_rate">59.9401</property>
  <property name="meta.media.0.stream.sample_aspect_ratio">0</property>
  <property name="meta.media.0.codec.width">3840</property>
  <property name="meta.media.0.codec.height">2160</property>
  <property name="meta.media.0.codec.rotate">0</property>
  <property name="meta.media.0.codec.pix_fmt">yuv420p</property>
  <property name="meta.media.0.codec.sample_aspect_ratio">0</property>
  <property name="meta.media.0.codec.colorspace">709</property>
  <property name="meta.media.0.codec.color_trc">1</property>
  <property name="meta.media.0.codec.name">h264</property>
  <property name="meta.media.0.codec.long_name">H.264 / AVC / MPEG-4 AVC / MPEG-4 part 10</property>
  <property name="meta.media.0.codec.bit_rate">24692673</property>
  <property name="meta.attr.0.stream.creation_time.markup">2023-09-07T09:57:46.000000Z</property>
  <property name="meta.attr.0.stream.handler_name.markup">Vimeo Artax Video Handler</property>
  <property name="meta.attr.0.stream.vendor_id.markup">[0][0][0][0]</property>
  <property name="meta.attr.0.stream.encoder.markup">AVC Coding</property>
  <property name="meta.media.1.stream.type">audio</property>
  <property name="meta.media.1.codec.sample_fmt">fltp</property>
  <property name="meta.media.1.codec.sample_rate">48000</property>
  <property name="meta.media.1.codec.channels">2</property>
  <property name="meta.media.1.codec.layout">stereo</property>
  <property name="meta.media.1.codec.name">aac</property>
  <property name="meta.media.1.codec.long_name">AAC (Advanced Audio Coding)</property>
  <property name="meta.media.1.codec.bit_rate">189502</property>
  <property name="meta.attr.1.stream.creation_time.markup">2023-09-07T09:57:46.000000Z</property>
  <property name="meta.attr.1.stream.handler_name.markup">Vimeo Artax Audio Handler</property>
  <property name="meta.attr.1.stream.vendor_id.markup">[0][0][0][0]</property>
  <property name="meta.attr.major_brand.markup">mp42</property>
  <property name="meta.attr.minor_version.markup">0</property>
  <property name="meta.attr.compatible_brands.markup">mp42isomavc1</property>
  <property name="meta.attr.creation_time.markup">2023-09-07T09:57:46.000000Z</property>
  <property name="meta.media.sample_aspect_num">1</property>
  <property name="meta.media.sample_aspect_den">1</property>
  <property name="meta.media.frame_rate_num">60000</property>
  <property name="meta.media.frame_rate_den">1001</property>
  <property name="meta.media.colorspace">709</property>
  <property name="meta.media.color_trc">1</property>
  <property name="meta.media.has_b_frames">2</property>
  <property name="meta.media.width">3840</property>
  <property name="meta.media.height">2160</property>
  <property name="meta.media.aspect_ratio">1</property>
  <property name="meta.media.color_range">mpeg</property>
  <property name="xml">was here</property>
  <property name="meta.media.top_field_first">0</property>
  <property name="meta.media.progressive">1</property>
  <property name="set.test_audio">0</property>
  <property name="set.test_image">1</property>
 </chain>
 <chain id="chain3" out="00:00:28.567">
  <property name="length">1715</property>
  <property name="eof">pause</property>
  <property name="resource">UNEDITED_VIDEOS/18366924-uhd_3840_2160_60fps.mp4</property>
  <property name="mlt_service">avformat-novalidate</property>
  <property name="seekable">1</property>
  <property name="audio_index">1</property>
  <property name="video_index">0</property>
  <property name="vstream">0</property>
  <property name="astream">0</property>
  <property name="kdenlive:folderid">5</property>
  <property name="kdenlive:id">11</property>
  <property name="kdenlive:control_uuid">{9872f63e-4c6a-48d0-8b06-af59d1aad6ab}</property>
  <property name="mute_on_pause">0</property>
  <property name="kdenlive:clip_type">0</property>
  <property name="kdenlive:file_size">36042314</property>
  <property name="kdenlive:file_hash">982ad390905b08c5f92298b6535b361c</property>
  <property name="kdenlive:audio_max1">130</property>
  <property name="meta.media.nb_streams">2</property>
  <property name="meta.media.0.stream.type">video</property>
  <property name="meta.media.0.stream.frame_rate">59.9401</property>
  <property name="meta.media.0.stream.sample_aspect_ratio">0</property>
  <property name="meta.media.0.codec.width">3840</property>
  <property name="meta.media.0.codec.height">2160</property>
  <property name="meta.media.0.codec.rotate">0</property>
  <property name="meta.media.0.codec.pix_fmt">yuv420p</property>
  <property name="meta.media.0.codec.sample_aspect_ratio">0</property>
  <property name="meta.media.0.codec.colorspace">709</property>
  <property name="meta.media.0.codec.color_trc">1</property>
  <property name="meta.media.0.codec.name">h264</property>
  <property name="meta.media.0.codec.long_name">H.264 / AVC / MPEG-4 AVC / MPEG-4 part 10</property>
  <property name="meta.media.0.codec.bit_rate">9910446</property>
  <property name="meta.attr.0.stream.creation_time.markup">2023-09-14T08:58:31.000000Z</property>
  <property name="meta.attr.0.stream.handler_name.markup">Vimeo Artax Video Handler</property>
  <property name="meta.attr.0.stream.vendor_id.markup">[0][0][0][0]</property>
  <property name="meta.attr.0.stream.encoder.markup">AVC Coding</property>
  <property name="meta.media.1.stream.type">audio</property>
  <property name="meta.media.1.codec.sample_fmt">fltp</property>
  <property name="meta.media.1.codec.sample_rate">48000</property>
  <property name="meta.media.1.codec.channels">2</property>
  <property name="meta.media.1.codec.layout">stereo</property>
  <property name="meta.media.1.codec.name">aac</property>
  <property name="meta.media.1.codec.long_name">AAC (Advanced Audio Coding)</property>
  <property name="meta.media.1.codec.bit_rate">189375</property>
  <property name="meta.attr.1.stream.creation_time.markup">2023-09-14T08:58:31.000000Z</property>
  <property name="meta.attr.1.stream.handler_name.markup">Vimeo Artax Audio Handler</property>
  <property name="meta.attr.1.stream.vendor_id.markup">[0][0][0][0]</property>
  <property name="meta.attr.major_brand.markup">mp42</property>
  <property name="meta.attr.minor_version.markup">0</property>
  <property name="meta.attr.compatible_brands.markup">mp42isomavc1</property>
  <property name="meta.attr.creation_time.markup">2023-09-14T08:58:31.000000Z</property>
  <property name="meta.media.sample_aspect_num">1</property>
  <property name="meta.media.sample_aspect_den">1</property>
  <property name="meta.media.frame_rate_num">60000</property>
  <property name="meta.media.frame_rate_den">1001</property>
  <property name="meta.media.colorspace">709</property>
  <property name="meta.media.color_trc">1</property>
  <property name="meta.media.has_b_frames">2</property>
  <property name="meta.media.width">3840</property>
  <property name="meta.media.height">2160</property>
  <property name="meta.media.aspect_ratio">1</property>
  <property name="meta.media.color_range">mpeg</property>
  <property name="xml">was here</property>
  <property name="meta.media.top_field_first">0</property>
  <property name="meta.media.progressive">1</property>
  <property name="set.test_audio">0</property>
  <property name="set.test_image">1</property>
 </chain>
 <chain id="chain4" out="00:00:18.567">
  <property name="length">1115</property>
  <property name="eof">pause</property>
  <property name="resource">UNEDITED_VIDEOS/18330199-uhd_3840_2160_60fps.mp4</property>
  <property name="mlt_service">avformat-novalidate</property>
  <property name="seekable">1</property>
  <property name="audio_index">1</property>
  <property name="video_index">0</property>
  <property name="vstream">0</property>
  <property name="astream">0</property>
  <property name="kdenlive:folderid">5</property>
  <property name="kdenlive:id">10</property>
  <property name="kdenlive:control_uuid">{68ea5df0-940d-4ba8-b48a-6d362421bd23}</property>
  <property name="mute_on_pause">0</property>
  <property name="kdenlive:clip_type">0</property>
  <property name="kdenlive:file_size">21144821</property>
  <property name="kdenlive:file_hash">d01a00a987b32fe7e4703fa897da6888</property>
  <property name="kdenlive:audio_max1">86</property>
  <property name="meta.media.nb_streams">2</property>
  <property name="meta.media.0.stream.type">video</property>
  <property name="meta.media.0.stream.frame_rate">59.9401</property>
  <property name="meta.media.0.stream.sample_aspect_ratio">0</property>
  <property name="meta.media.0.codec.width">3840</property>
  <property name="meta.media.0.codec.height">2160</property>
  <property name="meta.media.0.codec.rotate">0</property>
  <property name="meta.media.0.codec.pix_fmt">yuv420p</property>
  <property name="meta.media.0.codec.sample_aspect_ratio">0</property>
  <property name="meta.media.0.codec.colorspace">709</property>
  <property name="meta.media.0.codec.color_trc">1</property>
  <property name="meta.media.0.codec.name">h264</property>
  <property name="meta.media.0.codec.long_name">H.264 / AVC / MPEG-4 AVC / MPEG-4 part 10</property>
  <property name="meta.media.0.codec.bit_rate">8936540</property>
  <property name="meta.attr.0.stream.creation_time.markup">2023-09-11T08:56:02.000000Z</property>
  <property name="meta.attr.0.stream.handler_name.markup">Vimeo Artax Video Handler</property>
  <property name="meta.attr.0.stream.vendor_id.markup">[0][0][0][0]</property>
  <property name="meta.attr.0.stream.encoder.markup">AVC Coding</property>
  <property name="meta.media.1.stream.type">audio</property>
  <property name="meta.media.1.codec.sample_fmt">fltp</property>
  <property name="meta.media.1.codec.sample_rate">48000</property>
  <property name="meta.media.1.codec.channels">2</property>
  <property name="meta.media.1.codec.layout">stereo</property>
  <property name="meta.media.1.codec.name">aac</property>
  <property name="meta.media.1.codec.long_name">AAC (Advanced Audio Coding)</property>
  <property name="meta.media.1.codec.bit_rate">189389</property>
  <property name="meta.attr.1.stream.creation_time.markup">2023-09-11T08:56:02.000000Z</property>
  <property name="meta.attr.1.stream.handler_name.markup">Vimeo Artax Audio Handler</property>
  <property name="meta.attr.1.stream.vendor_id.markup">[0][0][0][0]</property>
  <property name="meta.attr.major_brand.markup">mp42</property>
  <property name="meta.attr.minor_version.markup">0</property>
  <property name="meta.attr.compatible_brands.markup">mp42isomavc1</property>
  <property name="meta.attr.creation_time.markup">2023-09-11T08:56:02.000000Z</property>
  <property name="meta.media.sample_aspect_num">1</property>
  <property name="meta.media.sample_aspect_den">1</property>
  <property name="meta.media.frame_rate_num">60000</property>
  <property name="meta.media.frame_rate_den">1001</property>
  <property name="meta.media.colorspace">709</property>
  <property name="meta.media.color_trc">1</property>
  <property name="meta.media.has_b_frames">2</property>
  <property name="meta.media.width">3840</property>
  <property name="meta.media.height">2160</property>
  <property name="meta.media.aspect_ratio">1</property>
  <property name="meta.media.color_range">mpeg</property>
  <property name="xml">was here</property>
  <property name="meta.media.top_field_first">0</property>
  <property name="meta.media.progressive">1</property>
  <property name="set.test_audio">0</property>
  <property name="set.test_image">1</property>
 </chain>
 <playlist id="playlist2">
  <property name="kdenlive:audio_track">1</property>
  <blank length="00:00:06.000"/>
  <entry in="00:00:00.000" out="00:00:08.733" producer="chain0">
   <property name="kdenlive:id">9</property>
  </entry>
  <blank length="00:00:03.250"/>
  <entry in="00:00:02.117" out="00:00:02.983" producer="producer3">
   <property name="kdenlive:id">8</property>
  </entry>
  <entry in="00:00:06.000" out="00:00:08.600" producer="chain2">
   <property name="kdenlive:id">8</property>
  </entry>
  <entry in="00:00:00.000" out="00:00:05.483" producer="chain3">
   <property name="kdenlive:id">11</property>
  </entry>
  <entry in="00:00:00.000" out="00:00:09.400" producer="chain4">
   <property name="kdenlive:id">10</property>
  </entry>
 </playlist>
 <chain id="chain1" out="00:00:25.567">
  <property name="length">1535</property>
  <property name="eof">pause</property>
  <property name="resource">UNEDITED_VIDEOS/18284817-uhd_3840_2160_60fps.mp4</property>
  <property name="mlt_service">avformat</property>
  <property name="meta.media.nb_streams">2</property>
  <property name="meta.media.0.stream.type">video</property>
  <property name="meta.media.0.stream.frame_rate">59.9401</property>
  <property name="meta.media.0.stream.sample_aspect_ratio">0</property>
  <property name="meta.media.0.codec.width">3840</property>
  <property name="meta.media.0.codec.height">2160</property>
  <property name="meta.media.0.codec.rotate">0</property>
  <property name="meta.media.0.codec.pix_fmt">yuv420p</property>
  <property name="meta.media.0.codec.sample_aspect_ratio">0</property>
  <property name="meta.media.0.codec.colorspace">709</property>
  <property name="meta.media.0.codec.color_trc">1</property>
  <property name="meta.media.0.codec.name">h264</property>
  <property name="meta.media.0.codec.long_name">H.264 / AVC / MPEG-4 AVC / MPEG-4 part 10</property>
  <property name="meta.media.0.codec.bit_rate">24692673</property>
  <property name="meta.attr.0.stream.creation_time.markup">2023-09-07T09:57:46.000000Z</property>
  <property name="meta.attr.0.stream.handler_name.markup">Vimeo Artax Video Handler</property>
  <property name="meta.attr.0.stream.vendor_id.markup">[0][0][0][0]</property>
  <property name="meta.attr.0.stream.encoder.markup">AVC Coding</property>
  <property name="meta.media.1.stream.type">audio</property>
  <property name="meta.media.1.codec.sample_fmt">fltp</property>
  <property name="meta.media.1.codec.sample_rate">48000</property>
  <property name="meta.media.1.codec.channels">2</property>
  <property name="meta.media.1.codec.layout">stereo</property>
  <property name="meta.media.1.codec.name">aac</property>
  <property name="meta.media.1.codec.long_name">AAC (Advanced Audio Coding)</property>
  <property name="meta.media.1.codec.bit_rate">189502</property>
  <property name="meta.attr.1.stream.creation_time.markup">2023-09-07T09:57:46.000000Z</property>
  <property name="meta.attr.1.stream.handler_name.markup">Vimeo Artax Audio Handler</property>
  <property name="meta.attr.1.stream.vendor_id.markup">[0][0][0][0]</property>
  <property name="meta.attr.major_brand.markup">mp42</property>
  <property name="meta.attr.minor_version.markup">0</property>
  <property name="meta.attr.compatible_brands.markup">mp42isomavc1</property>
  <property name="meta.attr.creation_time.markup">2023-09-07T09:57:46.000000Z</property>
  <property name="seekable">1</property>
  <property name="meta.media.sample_aspect_num">1</property>
  <property name="meta.media.sample_aspect_den">1</property>
  <property name="audio_index">1</property>
  <property name="video_index">0</property>
  <property name="vstream">0</property>
  <property name="meta.media.frame_rate_num">60000</property>
  <property name="meta.media.frame_rate_den">1001</property>
  <property name="meta.media.colorspace">709</property>
  <property name="meta.media.color_trc">1</property>
  <property name="meta.media.has_b_frames">2</property>
  <property name="meta.media.width">3840</property>
  <property name="meta.media.height">2160</property>
  <property name="meta.media.aspect_ratio">1</property>
  <property name="meta.media.color_range">mpeg</property>
  <property name="astream">0</property>
  <property name="kdenlive:control_uuid">{fd83b2b8-1eca-4da0-84fe-0d1a5329d305}</property>
  <property name="set.test_audio">0</property>
  <property name="set.test_image">1</property>
  <property name="kdenlive:id">8</property>
  <property name="meta.media.top_field_first">0</property>
  <property name="meta.media.progressive">1</property>
  <link id="link0">
   <property name="mlt_service">timeremap</property>
   <property name="pitch">0</property>
   <property name="image_mode">nearest</property>
   <property name="time_map">00:00:01.017=2.7;00:00:04.750=3.73333</property>
   <property name="speed">0.276785</property>
  </link>
 </chain>
 <playlist id="playlist3">
  <property name="kdenlive:audio_track">1</property>
  <blank length="00:00:13.750"/>
  <entry in="00:00:00.000" out="00:00:04.233" producer="chain1">
   <property name="kdenlive:id">8</property>
  </entry>
 </playlist>
 <tractor id="tractor1" in="00:00:00.000" out="00:00:36.400">
  <property name="kdenlive:audio_track">1</property>
  <property name="kdenlive:trackheight">92</property>
  <property name="kdenlive:timeline_active">1</property>
  <property name="kdenlive:collapsed">0</property>
  <property name="kdenlive:thumbs_format"/>
  <property name="kdenlive:audio_rec"/>
  <track hide="both" producer="playlist2"/>
  <track hide="both" producer="playlist3"/>
  <transition id="transition0" in="00:00:13.750" out="00:00:14.750">
   <property name="a_track">0</property>
   <property name="b_track">1</property>
   <property name="mlt_service">mix</property>
   <property name="kdenlive_id">mix</property>
   <property name="kdenlive:mixcut">60</property>
   <property name="start">-1</property>
   <property name="accepts_blanks">1</property>
   <property name="reverse">0</property>
  </transition>
  <filter id="filter3">
   <property name="window">75</property>
   <property name="max_gain">20dB</property>
   <property name="mlt_service">volume</property>
   <property name="internal_added">237</property>
   <property name="disable">1</property>
  </filter>
  <filter id="filter4">
   <property name="channel">-1</property>
   <property name="mlt_service">panner</property>
   <property name="internal_added">237</property>
   <property name="start">0.5</property>
   <property name="disable">1</property>
  </filter>
  <filter id="filter5">
   <property name="iec_scale">0</property>
   <property name="mlt_service">audiolevel</property>
   <property name="dbpeak">1</property>
   <property name="disable">1</property>
  </filter>
 </tractor>
 <chain id="chain5" out="00:00:36.567">
  <property name="length">2195</property>
  <property name="eof">pause</property>
  <property name="resource">UNEDITED_VIDEOS/18284892-uhd_3840_2160_60fps.mp4</property>
  <property name="mlt_service">avformat-novalidate</property>
  <property name="seekable">1</property>
  <property name="audio_index">1</property>
  <property name="video_index">0</property>
  <property name="vstream">0</property>
  <property name="astream">0</property>
  <property name="kdenlive:folderid">5</property>
  <property name="kdenlive:id">9</property>
  <property name="kdenlive:control_uuid">{d5ef3e5e-6803-422b-afad-056d48532600}</property>
  <property name="mute_on_pause">0</property>
  <property name="kdenlive:clip_type">0</property>
  <property name="kdenlive:file_size">113729717</property>
  <property name="kdenlive:file_hash">3fca09744cc32990beb0b7ce1aeb83b9</property>
  <property name="kdenlive:audio_max1">117</property>
  <property name="meta.media.nb_streams">2</property>
  <property name="meta.media.0.stream.type">video</property>
  <property name="meta.media.0.stream.frame_rate">59.9401</property>
  <property name="meta.media.0.stream.sample_aspect_ratio">0</property>
  <property name="meta.media.0.codec.width">3840</property>
  <property name="meta.media.0.codec.height">2160</property>
  <property name="meta.media.0.codec.rotate">0</property>
  <property name="meta.media.0.codec.pix_fmt">yuv420p</property>
  <property name="meta.media.0.codec.sample_aspect_ratio">0</property>
  <property name="meta.media.0.codec.colorspace">709</property>
  <property name="meta.media.0.codec.color_trc">1</property>
  <property name="meta.media.0.codec.name">h264</property>
  <property name="meta.media.0.codec.long_name">H.264 / AVC / MPEG-4 AVC / MPEG-4 part 10</property>
  <property name="meta.media.0.codec.bit_rate">24706557</property>
  <property name="meta.attr.0.stream.creation_time.markup">2023-09-07T10:14:02.000000Z</property>
  <property name="meta.attr.0.stream.handler_name.markup">Vimeo Artax Video Handler</property>
  <property name="meta.attr.0.stream.vendor_id.markup">[0][0][0][0]</property>
  <property name="meta.attr.0.stream.encoder.markup">AVC Coding</property>
  <property name="meta.media.1.stream.type">audio</property>
  <property name="meta.media.1.codec.sample_fmt">fltp</property>
  <property name="meta.media.1.codec.sample_rate">48000</property>
  <property name="meta.media.1.codec.channels">2</property>
  <property name="meta.media.1.codec.layout">stereo</property>
  <property name="meta.media.1.codec.name">aac</property>
  <property name="meta.media.1.codec.long_name">AAC (Advanced Audio Coding)</property>
  <property name="meta.media.1.codec.bit_rate">189439</property>
  <property name="meta.attr.1.stream.creation_time.markup">2023-09-07T10:14:02.000000Z</property>
  <property name="meta.attr.1.stream.handler_name.markup">Vimeo Artax Audio Handler</property>
  <property name="meta.attr.1.stream.vendor_id.markup">[0][0][0][0]</property>
  <property name="meta.attr.major_brand.markup">mp42</property>
  <property name="meta.attr.minor_version.markup">0</property>
  <property name="meta.attr.compatible_brands.markup">mp42isomavc1</property>
  <property name="meta.attr.creation_time.markup">2023-09-07T10:14:02.000000Z</property>
  <property name="meta.media.sample_aspect_num">1</property>
  <property name="meta.media.sample_aspect_den">1</property>
  <property name="meta.media.frame_rate_num">60000</property>
  <property name="meta.media.frame_rate_den">1001</property>
  <property name="meta.media.colorspace">709</property>
  <property name="meta.media.color_trc">1</property>
  <property name="meta.media.has_b_frames">2</property>
  <property name="meta.media.width">3840</property>
  <property name="meta.media.height">2160</property>
  <property name="meta.media.aspect_ratio">1</property>
  <property name="meta.media.color_range">mpeg</property>
  <property name="xml">was here</property>
  <property name="meta.media.top_field_first">0</property>
  <property name="meta.media.progressive">1</property>
  <property name="set.test_audio">1</property>
  <property name="set.test_image">0</property>
 </chain>
 <producer id="producer4" in="00:00:00.000" out="00:00:12.767">
  <property name="length">768</property>
  <property name="eof">pause</property>
  <property name="resource">2.000000:UNEDITED_VIDEOS/18284817-uhd_3840_2160_60fps.mp4</property>
  <property name="aspect_ratio">1</property>
  <property name="meta.media.nb_streams">2</property>
  <property name="meta.media.0.stream.type">video</property>
  <property name="meta.media.0.stream.frame_rate">59.9401</property>
  <property name="meta.media.0.stream.sample_aspect_ratio">0</property>
  <property name="meta.media.0.codec.width">3840</property>
  <property name="meta.media.0.codec.height">2160</property>
  <property name="meta.media.0.codec.rotate">0</property>
  <property name="meta.media.0.codec.pix_fmt">yuv420p</property>
  <property name="meta.media.0.codec.sample_aspect_ratio">0</property>
  <property name="meta.media.0.codec.colorspace">709</property>
  <property name="meta.media.0.codec.color_trc">1</property>
  <property name="meta.media.0.codec.name">h264</property>
  <property name="meta.media.0.codec.long_name">H.264 / AVC / MPEG-4 AVC / MPEG-4 part 10</property>
  <property name="meta.media.0.codec.bit_rate">24692673</property>
  <property name="meta.attr.0.stream.creation_time.markup">2023-09-07T09:57:46.000000Z</property>
  <property name="meta.attr.0.stream.handler_name.markup">Vimeo Artax Video Handler</property>
  <property name="meta.attr.0.stream.vendor_id.markup">[0][0][0][0]</property>
  <property name="meta.attr.0.stream.encoder.markup">AVC Coding</property>
  <property name="meta.media.1.stream.type">audio</property>
  <property name="meta.media.1.codec.sample_fmt">fltp</property>
  <property name="meta.media.1.codec.sample_rate">48000</property>
  <property name="meta.media.1.codec.channels">2</property>
  <property name="meta.media.1.codec.layout">stereo</property>
  <property name="meta.media.1.codec.name">aac</property>
  <property name="meta.media.1.codec.long_name">AAC (Advanced Audio Coding)</property>
  <property name="meta.media.1.codec.bit_rate">189502</property>
  <property name="meta.attr.1.stream.creation_time.markup">2023-09-07T09:57:46.000000Z</property>
  <property name="meta.attr.1.stream.handler_name.markup">Vimeo Artax Audio Handler</property>
  <property name="meta.attr.1.stream.vendor_id.markup">[0][0][0][0]</property>
  <property name="meta.attr.major_brand.markup">mp42</property>
  <property name="meta.attr.minor_version.markup">0</property>
  <property name="meta.attr.compatible_brands.markup">mp42isomavc1</property>
  <property name="meta.attr.creation_time.markup">2023-09-07T09:57:46.000000Z</property>
  <property name="seekable">1</property>
  <property name="meta.media.sample_aspect_num">1</property>
  <property name="meta.media.sample_aspect_den">1</property>
  <property name="audio_index">1</property>
  <property name="video_index">0</property>
  <property name="warp_speed">2</property>
  <property name="warp_resource">UNEDITED_VIDEOS/18284817-uhd_3840_2160_60fps.mp4</property>
  <property name="mlt_service">timewarp</property>
  <property name="kdenlive:control_uuid">{fd83b2b8-1eca-4da0-84fe-0d1a5329d305}</property>
  <property name="vstream">0</property>
  <property name="astream">0</property>
  <property name="set.test_audio">1</property>
  <property name="set.test_image">0</property>
  <property name="kdenlive:id">8</property>
  <property name="warp_pitch">0</property>
  <property name="meta.media.frame_rate_num">60000</property>
  <property name="meta.media.frame_rate_den">1001</property>
  <property name="meta.media.colorspace">709</property>
  <property name="meta.media.color_trc">1</property>
  <property name="meta.media.has_b_frames">2</property>
  <property name="meta.media.width">3840</property>
  <property name="meta.media.height">2160</property>
  <property name="meta.media.aspect_ratio">1</property>
  <property name="meta.media.color_range">mpeg</property>
  <property name="meta.media.top_field_first">0</property>
  <property name="meta.media.progressive">1</property>
 </producer>
 <chain id="chain7" out="00:00:25.567">
  <property name="length">1535</property>
  <property name="eof">pause</property>
  <property name="resource">UNEDITED_VIDEOS/18284817-uhd_3840_2160_60fps.mp4</property>
  <property name="mlt_service">avformat-novalidate</property>
  <property name="seekable">1</property>
  <property name="audio_index">1</property>
  <property name="video_index">0</property>
  <property name="vstream">0</property>
  <property name="astream">0</property>
  <property name="kdenlive:folderid">5</property>
  <property name="kdenlive:id">8</property>
  <property name="kdenlive:control_uuid">{fd83b2b8-1eca-4da0-84fe-0d1a5329d305}</property>
  <property name="mute_on_pause">0</property>
  <property name="kdenlive:clip_type">0</property>
  <property name="kdenlive:file_size">79415446</property>
  <property name="kdenlive:file_hash">7b5a098fa3b4d53e893d97ff634916fe</property>
  <property name="kdenlive:audio_max1">121</property>
  <property name="kdenlive:monitorPosition">219</property>
  <property name="meta.media.nb_streams">2</property>
  <property name="meta.media.0.stream.type">video</property>
  <property name="meta.media.0.stream.frame_rate">59.9401</property>
  <property name="meta.media.0.stream.sample_aspect_ratio">0</property>
  <property name="meta.media.0.codec.width">3840</property>
  <property name="meta.media.0.codec.height">2160</property>
  <property name="meta.media.0.codec.rotate">0</property>
  <property name="meta.media.0.codec.pix_fmt">yuv420p</property>
  <property name="meta.media.0.codec.sample_aspect_ratio">0</property>
  <property name="meta.media.0.codec.colorspace">709</property>
  <property name="meta.media.0.codec.color_trc">1</property>
  <property name="meta.media.0.codec.name">h264</property>
  <property name="meta.media.0.codec.long_name">H.264 / AVC / MPEG-4 AVC / MPEG-4 part 10</property>
  <property name="meta.media.0.codec.bit_rate">24692673</property>
  <property name="meta.attr.0.stream.creation_time.markup">2023-09-07T09:57:46.000000Z</property>
  <property name="meta.attr.0.stream.handler_name.markup">Vimeo Artax Video Handler</property>
  <property name="meta.attr.0.stream.vendor_id.markup">[0][0][0][0]</property>
  <property name="meta.attr.0.stream.encoder.markup">AVC Coding</property>
  <property name="meta.media.1.stream.type">audio</property>
  <property name="meta.media.1.codec.sample_fmt">fltp</property>
  <property name="meta.media.1.codec.sample_rate">48000</property>
  <property name="meta.media.1.codec.channels">2</property>
  <property name="meta.media.1.codec.layout">stereo</property>
  <property name="meta.media.1.codec.name">aac</property>
  <property name="meta.media.1.codec.long_name">AAC (Advanced Audio Coding)</property>
  <property name="meta.media.1.codec.bit_rate">189502</property>
  <property name="meta.attr.1.stream.creation_time.markup">2023-09-07T09:57:46.000000Z</property>
  <property name="meta.attr.1.stream.handler_name.markup">Vimeo Artax Audio Handler</property>
  <property name="meta.attr.1.stream.vendor_id.markup">[0][0][0][0]</property>
  <property name="meta.attr.major_brand.markup">mp42</property>
  <property name="meta.attr.minor_version.markup">0</property>
  <property name="meta.attr.compatible_brands.markup">mp42isomavc1</property>
  <property name="meta.attr.creation_time.markup">2023-09-07T09:57:46.000000Z</property>
  <property name="meta.media.sample_aspect_num">1</property>
  <property name="meta.media.sample_aspect_den">1</property>
  <property name="meta.media.frame_rate_num">60000</property>
  <property name="meta.media.frame_rate_den">1001</property>
  <property name="meta.media.colorspace">709</property>
  <property name="meta.media.color_trc">1</property>
  <property name="meta.media.has_b_frames">2</property>
  <property name="meta.media.width">3840</property>
  <property name="meta.media.height">2160</property>
  <property name="meta.media.aspect_ratio">1</property>
  <property name="meta.media.color_range">mpeg</property>
  <property name="xml">was here</property>
  <property name="meta.media.top_field_first">0</property>
  <property name="meta.media.progressive">1</property>
  <property name="set.test_audio">1</property>
  <property name="set.test_image">0</property>
 </chain>
 <chain id="chain13" out="00:00:28.567">
  <property name="length">1715</property>
  <property name="eof">pause</property>
  <property name="resource">UNEDITED_VIDEOS/18366924-uhd_3840_2160_60fps.mp4</property>
  <property name="mlt_service">avformat-novalidate</property>
  <property name="seekable">1</property>
  <property name="audio_index">1</property>
  <property name="video_index">0</property>
  <property name="vstream">0</property>
  <property name="astream">0</property>
  <property name="kdenlive:folderid">5</property>
  <property name="kdenlive:id">11</property>
  <property name="kdenlive:control_uuid">{9872f63e-4c6a-48d0-8b06-af59d1aad6ab}</property>
  <property name="mute_on_pause">0</property>
  <property name="kdenlive:clip_type">0</property>
  <property name="kdenlive:file_size">36042314</property>
  <property name="kdenlive:file_hash">982ad390905b08c5f92298b6535b361c</property>
  <property name="kdenlive:audio_max1">130</property>
  <property name="meta.media.nb_streams">2</property>
  <property name="meta.media.0.stream.type">video</property>
  <property name="meta.media.0.stream.frame_rate">59.9401</property>
  <property name="meta.media.0.stream.sample_aspect_ratio">0</property>
  <property name="meta.media.0.codec.width">3840</property>
  <property name="meta.media.0.codec.height">2160</property>
  <property name="meta.media.0.codec.rotate">0</property>
  <property name="meta.media.0.codec.pix_fmt">yuv420p</property>
  <property name="meta.media.0.codec.sample_aspect_ratio">0</property>
  <property name="meta.media.0.codec.colorspace">709</property>
  <property name="meta.media.0.codec.color_trc">1</property>
  <property name="meta.media.0.codec.name">h264</property>
  <property name="meta.media.0.codec.long_name">H.264 / AVC / MPEG-4 AVC / MPEG-4 part 10</property>
  <property name="meta.media.0.codec.bit_rate">9910446</property>
  <property name="meta.attr.0.stream.creation_time.markup">2023-09-14T08:58:31.000000Z</property>
  <property name="meta.attr.0.stream.handler_name.markup">Vimeo Artax Video Handler</property>
  <property name="meta.attr.0.stream.vendor_id.markup">[0][0][0][0]</property>
  <property name="meta.attr.0.stream.encoder.markup">AVC Coding</property>
  <property name="meta.media.1.stream.type">audio</property>
  <property name="meta.media.1.codec.sample_fmt">fltp</property>
  <property name="meta.media.1.codec.sample_rate">48000</property>
  <property name="meta.media.1.codec.channels">2</property>
  <property name="meta.media.1.codec.layout">stereo</property>
  <property name="meta.media.1.codec.name">aac</property>
  <property name="meta.media.1.codec.long_name">AAC (Advanced Audio Coding)</property>
  <property name="meta.media.1.codec.bit_rate">189375</property>
  <property name="meta.attr.1.stream.creation_time.markup">2023-09-14T08:58:31.000000Z</property>
  <property name="meta.attr.1.stream.handler_name.markup">Vimeo Artax Audio Handler</property>
  <property name="meta.attr.1.stream.vendor_id.markup">[0][0][0][0]</property>
  <property name="meta.attr.major_brand.markup">mp42</property>
  <property name="meta.attr.minor_version.markup">0</property>
  <property name="meta.attr.compatible_brands.markup">mp42isomavc1</property>
  <property name="meta.attr.creation_time.markup">2023-09-14T08:58:31.000000Z</property>
  <property name="meta.media.sample_aspect_num">1</property>
  <property name="meta.media.sample_aspect_den">1</property>
  <property name="meta.media.frame_rate_num">60000</property>
  <property name="meta.media.frame_rate_den">1001</property>
  <property name="meta.media.colorspace">709</property>
  <property name="meta.media.color_trc">1</property>
  <property name="meta.media.has_b_frames">2</property>
  <property name="meta.media.width">3840</property>
  <property name="meta.media.height">2160</property>
  <property name="meta.media.aspect_ratio">1</property>
  <property name="meta.media.color_range">mpeg</property>
  <property name="xml">was here</property>
  <property name="meta.media.top_field_first">0</property>
  <property name="meta.media.progressive">1</property>
  <property name="set.test_audio">1</property>
  <property name="set.test_image">0</property>
 </chain>
 <chain id="chain14" out="00:00:18.567">
  <property name="length">1115</property>
  <property name="eof">pause</property>
  <property name="resource">UNEDITED_VIDEOS/18330199-uhd_3840_2160_60fps.mp4</property>
  <property name="mlt_service">avformat-novalidate</property>
  <property name="seekable">1</property>
  <property name="audio_index">1</property>
  <property name="video_index">0</property>
  <property name="vstream">0</property>
  <property name="astream">0</property>
  <property name="kdenlive:folderid">5</property>
  <property name="kdenlive:id">10</property>
  <property name="kdenlive:control_uuid">{68ea5df0-940d-4ba8-b48a-6d362421bd23}</property>
  <property name="mute_on_pause">0</property>
  <property name="kdenlive:clip_type">0</property>
  <property name="kdenlive:file_size">21144821</property>
  <property name="kdenlive:file_hash">d01a00a987b32fe7e4703fa897da6888</property>
  <property name="kdenlive:audio_max1">86</property>
  <property name="meta.media.nb_streams">2</property>
  <property name="meta.media.0.stream.type">video</property>
  <property name="meta.media.0.stream.frame_rate">59.9401</property>
  <property name="meta.media.0.stream.sample_aspect_ratio">0</property>
  <property name="meta.media.0.codec.width">3840</property>
  <property name="meta.media.0.codec.height">2160</property>
  <property name="meta.media.0.codec.rotate">0</property>
  <property name="meta.media.0.codec.pix_fmt">yuv420p</property>
  <property name="meta.media.0.codec.sample_aspect_ratio">0</property>
  <property name="meta.media.0.codec.colorspace">709</property>
  <property name="meta.media.0.codec.color_trc">1</property>
  <property name="meta.media.0.codec.name">h264</property>
  <property name="meta.media.0.codec.long_name">H.264 / AVC / MPEG-4 AVC / MPEG-4 part 10</property>
  <property name="meta.media.0.codec.bit_rate">8936540</property>
  <property name="meta.attr.0.stream.creation_time.markup">2023-09-11T08:56:02.000000Z</property>
  <property name="meta.attr.0.stream.handler_name.markup">Vimeo Artax Video Handler</property>
  <property name="meta.attr.0.stream.vendor_id.markup">[0][0][0][0]</property>
  <property name="meta.attr.0.stream.encoder.markup">AVC Coding</property>
  <property name="meta.media.1.stream.type">audio</property>
  <property name="meta.media.1.codec.sample_fmt">fltp</property>
  <property name="meta.media.1.codec.sample_rate">48000</property>
  <property name="meta.media.1.codec.channels">2</property>
  <property name="meta.media.1.codec.layout">stereo</property>
  <property name="meta.media.1.codec.name">aac</property>
  <property name="meta.media.1.codec.long_name">AAC (Advanced Audio Coding)</property>
  <property name="meta.media.1.codec.bit_rate">189389</property>
  <property name="meta.attr.1.stream.creation_time.markup">2023-09-11T08:56:02.000000Z</property>
  <property name="meta.attr.1.stream.handler_name.markup">Vimeo Artax Audio Handler</property>
  <property name="meta.attr.1.stream.vendor_id.markup">[0][0][0][0]</property>
  <property name="meta.attr.major_brand.markup">mp42</property>
  <property name="meta.attr.minor_version.markup">0</property>
  <property name="meta.attr.compatible_brands.markup">mp42isomavc1</property>
  <property name="meta.attr.creation_time.markup">2023-09-11T08:56:02.000000Z</property>
  <property name="meta.media.sample_aspect_num">1</property>
  <property name="meta.media.sample_aspect_den">1</property>
  <property name="meta.media.frame_rate_num">60000</property>
  <property name="meta.media.frame_rate_den">1001</property>
  <property name="meta.media.colorspace">709</property>
  <property name="meta.media.color_trc">1</property>
  <property name="meta.media.has_b_frames">2</property>
  <property name="meta.media.width">3840</property>
  <property name="meta.media.height">2160</property>
  <property name="meta.media.aspect_ratio">1</property>
  <property name="meta.media.color_range">mpeg</property>
  <property name="xml">was here</property>
  <property name="meta.media.top_field_first">0</property>
  <property name="meta.media.progressive">1</property>
  <property name="set.test_audio">1</property>
  <property name="set.test_image">0</property>
 </chain>
 <playlist id="playlist4">
  <entry in="00:00:00.000" out="00:00:05.983" producer="producer1">
   <property name="kdenlive:id">12</property>
  </entry>
  <entry in="00:00:00.000" out="00:00:08.733" producer="chain5">
   <property name="kdenlive:id">9</property>
   <filter id="filter6" out="00:00:02.483">
    <property name="start">1</property>
    <property name="level">1</property>
    <property name="mlt_service">brightness</property>
    <property name="kdenlive_id">fade_from_black</property>
    <property name="alpha">00:00:00.000=0;00:00:02.483=1</property>
    <property name="kdenlive:collapsed">0</property>
   </filter>
   <filter id="filter7">
    <property name="oversaturate_cr">00:00:00.000=400</property>
    <property name="oversaturate_cb">00:00:00.000=383</property>
    <property name="mlt_service">tcolor</property>
    <property name="kdenlive_id">tcolor</property>
    <property name="kdenlive:collapsed">1</property>
   </filter>
   <filter id="filter8">
    <property name="rotate_center">1</property>
    <property name="mlt_service">qtblend</property>
    <property name="kdenlive_id">qtblend</property>
    <property name="rect">00:00:00.000=0 0 3840 2160 1.000000;00:00:01.967=0 0 3840 2160 1.000000;00:00:03.900=-2976 -1674 9792 5508 1.000000;00:00:04.133=-2976 -1674 9792 5508 1.000000;00:00:05.950=0 0 3840 2160 1.000000</property>
    <property name="rotation">00:00:00.000=0;00:00:01.967=0;00:00:03.900=0;00:00:04.133=0;00:00:05.950=0</property>
    <property name="compositing">0</property>
    <property name="distort">0</property>
    <property name="kdenlive:collapsed">1</property>
   </filter>
  </entry>
  <blank length="00:00:03.250"/>
  <entry in="00:00:02.117" out="00:00:02.983" producer="producer4">
   <property name="kdenlive:id">8</property>
   <filter id="filter10">
    <property name="oversaturate_cr">00:00:01.617=400</property>
    <property name="oversaturate_cb">00:00:01.617=400</property>
    <property name="mlt_service">tcolor</property>
    <property name="kdenlive_id">tcolor</property>
    <property name="kdenlive:collapsed">0</property>
   </filter>
  </entry>
  <entry in="00:00:06.000" out="00:00:08.600" producer="chain7">
   <property name="kdenlive:id">8</property>
   <filter id="filter11">
    <property name="oversaturate_cr">00:00:06.000=400</property>
    <property name="oversaturate_cb">00:00:06.000=400</property>
    <property name="mlt_service">tcolor</property>
    <property name="kdenlive_id">tcolor</property>
    <property name="kdenlive:collapsed">0</property>
   </filter>
  </entry>
  <entry in="00:00:00.000" out="00:00:05.483" producer="chain13">
   <property name="kdenlive:id">11</property>
   <property name="kdenlive:activeeffect">1</property>
   <filter id="filter12">
    <property name="oversaturate_cr">00:00:00.000=400</property>
    <property name="oversaturate_cb">00:00:00.000=400</property>
    <property name="mlt_service">tcolor</property>
    <property name="kdenlive_id">tcolor</property>
    <property name="kdenlive:collapsed">1</property>
   </filter>
   <filter id="filter9">
    <property name="hradius">00:00:00.000=1;00:00:05.267=1;00:00:05.483=56</property>
    <property name="vradius">00:00:00.000=1;00:00:05.267=1;00:00:05.483=1</property>
    <property name="mlt_service">box_blur</property>
    <property name="kdenlive_id">box_blur</property>
    <property name="preserve_alpha">0</property>
    <property name="kdenlive:collapsed">0</property>
   </filter>
  </entry>
  <entry in="00:00:00.000" out="00:00:09.400" producer="chain14">
   <property name="kdenlive:id">10</property>
   <property name="kdenlive:activeeffect">3</property>
   <filter id="filter13">
    <property name="oversaturate_cr">00:00:00.000=400</property>
    <property name="oversaturate_cb">00:00:00.000=400</property>
    <property name="mlt_service">tcolor</property>
    <property name="kdenlive_id">tcolor</property>
    <property name="kdenlive:collapsed">1</property>
   </filter>
   <filter id="filter14" in="00:00:08.650" out="00:00:09.400">
    <property name="start">1</property>
    <property name="level">1</property>
    <property name="mlt_service">brightness</property>
    <property name="kdenlive_id">fade_to_black</property>
    <property name="alpha">00:00:00.000=1;00:00:00.750=0</property>
    <property name="kdenlive:collapsed">1</property>
   </filter>
   <filter id="filter15">
    <property name="rotate_center">0</property>
    <property name="mlt_service">qtblend</property>
    <property name="kdenlive_id">qtblend</property>
    <property name="rect">00:00:00.000=0 0 3840 2160 1.000000;00:00:02.383=-1874 -51 5760 3240 1.000000</property>
    <property name="rotation">00:00:00.000=0;00:00:02.383=0</property>
    <property name="compositing">0</property>
    <property name="distort">0</property>
    <property name="kdenlive:collapsed">1</property>
   </filter>
   <filter id="filter16">
    <property name="hradius">00:00:00.000=1;00:00:00.017=1;00:00:00.550=1</property>
    <property name="vradius">00:00:00.000=1;00:00:00.017=25;00:00:00.550=1</property>
    <property name="mlt_service">box_blur</property>
    <property name="kdenlive_id">box_blur</property>
    <property name="preserve_alpha">0</property>
    <property name="kdenlive:collapsed">0</property>
   </filter>
  </entry>
 </playlist>
 <chain id="chain6" out="00:00:25.567">
  <property name="length">1535</property>
  <property name="eof">pause</property>
  <property name="resource">UNEDITED_VIDEOS/18284817-uhd_3840_2160_60fps.mp4</property>
  <property name="mlt_service">avformat</property>
  <property name="meta.media.nb_streams">2</property>
  <property name="meta.media.0.stream.type">video</property>
  <property name="meta.media.0.stream.frame_rate">59.9401</property>
  <property name="meta.media.0.stream.sample_aspect_ratio">0</property>
  <property name="meta.media.0.codec.width">3840</property>
  <property name="meta.media.0.codec.height">2160</property>
  <property name="meta.media.0.codec.rotate">0</property>
  <property name="meta.media.0.codec.pix_fmt">yuv420p</property>
  <property name="meta.media.0.codec.sample_aspect_ratio">0</property>
  <property name="meta.media.0.codec.colorspace">709</property>
  <property name="meta.media.0.codec.color_trc">1</property>
  <property name="meta.media.0.codec.name">h264</property>
  <property name="meta.media.0.codec.long_name">H.264 / AVC / MPEG-4 AVC / MPEG-4 part 10</property>
  <property name="meta.media.0.codec.bit_rate">24692673</property>
  <property name="meta.attr.0.stream.creation_time.markup">2023-09-07T09:57:46.000000Z</property>
  <property name="meta.attr.0.stream.handler_name.markup">Vimeo Artax Video Handler</property>
  <property name="meta.attr.0.stream.vendor_id.markup">[0][0][0][0]</property>
  <property name="meta.attr.0.stream.encoder.markup">AVC Coding</property>
  <property name="meta.media.1.stream.type">audio</property>
  <property name="meta.media.1.codec.sample_fmt">fltp</property>
  <property name="meta.media.1.codec.sample_rate">48000</property>
  <property name="meta.media.1.codec.channels">2</property>
  <property name="meta.media.1.codec.layout">stereo</property>
  <property name="meta.media.1.codec.name">aac</property>
  <property name="meta.media.1.codec.long_name">AAC (Advanced Audio Coding)</property>
  <property name="meta.media.1.codec.bit_rate">189502</property>
  <property name="meta.attr.1.stream.creation_time.markup">2023-09-07T09:57:46.000000Z</property>
  <property name="meta.attr.1.stream.handler_name.markup">Vimeo Artax Audio Handler</property>
  <property name="meta.attr.1.stream.vendor_id.markup">[0][0][0][0]</property>
  <property name="meta.attr.major_brand.markup">mp42</property>
  <property name="meta.attr.minor_version.markup">0</property>
  <property name="meta.attr.compatible_brands.markup">mp42isomavc1</property>
  <property name="meta.attr.creation_time.markup">2023-09-07T09:57:46.000000Z</property>
  <property name="seekable">1</property>
  <property name="meta.media.sample_aspect_num">1</property>
  <property name="meta.media.sample_aspect_den">1</property>
  <property name="audio_index">1</property>
  <property name="video_index">0</property>
  <property name="vstream">0</property>
  <property name="meta.media.frame_rate_num">60000</property>
  <property name="meta.media.frame_rate_den">1001</property>
  <property name="meta.media.colorspace">709</property>
  <property name="meta.media.color_trc">1</property>
  <property name="meta.media.has_b_frames">2</property>
  <property name="meta.media.width">3840</property>
  <property name="meta.media.height">2160</property>
  <property name="meta.media.aspect_ratio">1</property>
  <property name="meta.media.color_range">mpeg</property>
  <property name="astream">0</property>
  <property name="kdenlive:control_uuid">{fd83b2b8-1eca-4da0-84fe-0d1a5329d305}</property>
  <property name="set.test_audio">1</property>
  <property name="set.test_image">0</property>
  <property name="kdenlive:id">8</property>
  <property name="meta.media.top_field_first">0</property>
  <property name="meta.media.progressive">1</property>
  <link id="link1">
   <property name="mlt_service">timeremap</property>
   <property name="pitch">0</property>
   <property name="image_mode">nearest</property>
   <property name="time_map">00:00:01.017=2.7;00:00:04.750=3.73333</property>
   <property name="speed">0.276785</property>
  </link>
 </chain>
 <playlist id="playlist5">
  <blank length="00:00:13.750"/>
  <entry in="00:00:00.000" out="00:00:04.233" producer="chain6">
   <property name="kdenlive:id">8</property>
   <filter id="filter17">
    <property name="oversaturate_cr">00:00:00.000=400</property>
    <property name="oversaturate_cb">00:00:00.000=400</property>
    <property name="mlt_service">tcolor</property>
    <property name="kdenlive_id">tcolor</property>
    <property name="kdenlive:collapsed">1</property>
   </filter>
  </entry>
 </playlist>
 <tractor id="tractor2" in="00:00:00.000" out="00:00:36.400">
  <property name="kdenlive:trackheight">92</property>
  <property name="kdenlive:timeline_active">1</property>
  <property name="kdenlive:collapsed">0</property>
  <property name="kdenlive:thumbs_format"/>
  <property name="kdenlive:audio_rec"/>
  <track hide="audio" producer="playlist4"/>
  <track hide="audio" producer="playlist5"/>
  <transition id="transition1" in="00:00:13.750" out="00:00:14.750">
   <property name="a_track">0</property>
   <property name="b_track">1</property>
   <property name="version">0.1</property>
   <property name="mlt_service">frei0r.sleid0r_slide-right</property>
   <property name="kdenlive_id">frei0r.sleid0r_slide-right</property>
   <property name="kdenlive:mixcut">60</property>
   <property name="position">00:00:00.000=0;00:00:01.000=1</property>
  </transition>
 </tractor>
 <playlist id="playlist6">
  <entry in="00:00:00.000" out="00:00:05.733" producer="producer2">
   <property name="kdenlive:id">13</property>
   <filter id="filter18" out="00:00:03.000">
    <property name="start">1</property>
    <property name="level">1</property>
    <property name="mlt_service">brightness</property>
    <property name="kdenlive_id">fade_from_black</property>
    <property name="alpha">00:00:00.000=0;00:00:03.000=1</property>
    <property name="kdenlive:collapsed">0</property>
   </filter>
   <filter id="filter19" in="00:00:02.733" out="00:00:05.733">
    <property name="start">1</property>
    <property name="level">1</property>
    <property name="mlt_service">brightness</property>
    <property name="kdenlive_id">fade_to_black</property>
    <property name="alpha">00:00:00.000=1;00:00:03.000=0</property>
    <property name="kdenlive:collapsed">0</property>
   </filter>
  </entry>
 </playlist>
 <playlist id="playlist7"/>
 <tractor id="tractor3" in="00:00:00.000" out="00:00:05.733">
  <property name="kdenlive:trackheight">92</property>
  <property name="kdenlive:timeline_active">1</property>
  <property name="kdenlive:collapsed">0</property>
  <property name="kdenlive:thumbs_format"/>
  <property name="kdenlive:audio_rec"/>
  <track hide="audio" producer="playlist6"/>
  <track hide="audio" producer="playlist7"/>
 </tractor>
 <producer id="producer5" in="00:00:00.000" out="00:00:00.400">
  <property name="length">25</property>
  <property name="eof">pause</property>
  <property name="resource">C:/Users/Beqir/AppData/Local/kdenlive/cache/1733432264654/preview/0.mkv</property>
  <property name="audio_index">-1</property>
  <property name="video_index">0</property>
  <property name="mute_on_pause">0</property>
  <property name="mlt_service">avformat-novalidate</property>
  <property name="meta.media.nb_streams">1</property>
  <property name="meta.media.0.stream.type">video</property>
  <property name="meta.media.0.stream.frame_rate">60</property>
  <property name="meta.media.0.stream.sample_aspect_ratio">1</property>
  <property name="meta.media.0.codec.width">3840</property>
  <property name="meta.media.0.codec.height">2160</property>
  <property name="meta.media.0.codec.rotate">0</property>
  <property name="meta.media.0.codec.pix_fmt">yuv420p</property>
  <property name="meta.media.0.codec.sample_aspect_ratio">1</property>
  <property name="meta.media.0.codec.colorspace">709</property>
  <property name="meta.media.0.codec.color_trc">1</property>
  <property name="meta.media.0.codec.name">h264</property>
  <property name="meta.media.0.codec.long_name">H.264 / AVC / MPEG-4 AVC / MPEG-4 part 10</property>
  <property name="meta.media.0.codec.bit_rate">0</property>
  <property name="meta.attr.0.stream.DURATION.markup">00:00:00.417000000</property>
  <property name="meta.attr.ENCODER.markup">Lavf61.7.100</property>
  <property name="seekable">1</property>
  <property name="meta.media.sample_aspect_num">1</property>
  <property name="meta.media.sample_aspect_den">1</property>
  <property name="aspect_ratio">1</property>
  <property name="format">3</property>
  <property name="vstream">0</property>
  <property name="meta.media.frame_rate_num">60</property>
  <property name="meta.media.frame_rate_den">1</property>
  <property name="meta.media.colorspace">709</property>
  <property name="meta.media.color_trc">1</property>
  <property name="meta.media.has_b_frames">0</property>
  <property name="meta.media.width">3840</property>
  <property name="meta.media.height">2160</property>
  <property name="meta.media.aspect_ratio">1</property>
  <property name="meta.media.color_range">mpeg</property>
  <property name="meta.media.top_field_first">0</property>
  <property name="meta.media.progressive">1</property>
  <property name="kdenlive:remove">1</property>
 </producer>
 <producer id="producer6" in="00:00:00.000" out="00:00:00.400">
  <property name="length">25</property>
  <property name="eof">pause</property>
  <property name="resource">C:/Users/Beqir/AppData/Local/kdenlive/cache/1733432264654/preview/25.mkv</property>
  <property name="audio_index">-1</property>
  <property name="video_index">0</property>
  <property name="mute_on_pause">0</property>
  <property name="mlt_service">avformat-novalidate</property>
  <property name="meta.media.nb_streams">1</property>
  <property name="meta.media.0.stream.type">video</property>
  <property name="meta.media.0.stream.frame_rate">60</property>
  <property name="meta.media.0.stream.sample_aspect_ratio">1</property>
  <property name="meta.media.0.codec.width">3840</property>
  <property name="meta.media.0.codec.height">2160</property>
  <property name="meta.media.0.codec.rotate">0</property>
  <property name="meta.media.0.codec.pix_fmt">yuv420p</property>
  <property name="meta.media.0.codec.sample_aspect_ratio">1</property>
  <property name="meta.media.0.codec.colorspace">709</property>
  <property name="meta.media.0.codec.color_trc">1</property>
  <property name="meta.media.0.codec.name">h264</property>
  <property name="meta.media.0.codec.long_name">H.264 / AVC / MPEG-4 AVC / MPEG-4 part 10</property>
  <property name="meta.media.0.codec.bit_rate">0</property>
  <property name="meta.attr.0.stream.DURATION.markup">00:00:00.417000000</property>
  <property name="meta.attr.ENCODER.markup">Lavf61.7.100</property>
  <property name="seekable">1</property>
  <property name="meta.media.sample_aspect_num">1</property>
  <property name="meta.media.sample_aspect_den">1</property>
  <property name="aspect_ratio">1</property>
  <property name="format">3</property>
  <property name="vstream">0</property>
  <property name="meta.media.frame_rate_num">60</property>
  <property name="meta.media.frame_rate_den">1</property>
  <property name="meta.media.colorspace">709</property>
  <property name="meta.media.color_trc">1</property>
  <property name="meta.media.has_b_frames">0</property>
  <property name="meta.media.width">3840</property>
  <property name="meta.media.height">2160</property>
  <property name="meta.media.aspect_ratio">1</property>
  <property name="meta.media.color_range">mpeg</property>
  <property name="meta.media.top_field_first">0</property>
  <property name="meta.media.progressive">1</property>
  <property name="kdenlive:remove">1</property>
 </producer>
 <producer id="producer7" in="00:00:00.000" out="00:00:00.400">
  <property name="length">25</property>
  <property name="eof">pause</property>
  <property name="resource">C:/Users/Beqir/AppData/Local/kdenlive/cache/1733432264654/preview/50.mkv</property>
  <property name="audio_index">-1</property>
  <property name="video_index">0</property>
  <property name="mute_on_pause">0</property>
  <property name="mlt_service">avformat-novalidate</property>
  <property name="meta.media.nb_streams">1</property>
  <property name="meta.media.0.stream.type">video</property>
  <property name="meta.media.0.stream.frame_rate">60</property>
  <property name="meta.media.0.stream.sample_aspect_ratio">1</property>
  <property name="meta.media.0.codec.width">3840</property>
  <property name="meta.media.0.codec.height">2160</property>
  <property name="meta.media.0.codec.rotate">0</property>
  <property name="meta.media.0.codec.pix_fmt">yuv420p</property>
  <property name="meta.media.0.codec.sample_aspect_ratio">1</property>
  <property name="meta.media.0.codec.colorspace">709</property>
  <property name="meta.media.0.codec.color_trc">1</property>
  <property name="meta.media.0.codec.name">h264</property>
  <property name="meta.media.0.codec.long_name">H.264 / AVC / MPEG-4 AVC / MPEG-4 part 10</property>
  <property name="meta.media.0.codec.bit_rate">0</property>
  <property name="meta.attr.0.stream.DURATION.markup">00:00:00.417000000</property>
  <property name="meta.attr.ENCODER.markup">Lavf61.7.100</property>
  <property name="seekable">1</property>
  <property name="meta.media.sample_aspect_num">1</property>
  <property name="meta.media.sample_aspect_den">1</property>
  <property name="aspect_ratio">1</property>
  <property name="format">3</property>
  <property name="vstream">0</property>
  <property name="meta.media.frame_rate_num">60</property>
  <property name="meta.media.frame_rate_den">1</property>
  <property name="meta.media.colorspace">709</property>
  <property name="meta.media.color_trc">1</property>
  <property name="meta.media.has_b_frames">0</property>
  <property name="meta.media.width">3840</property>
  <property name="meta.media.height">2160</property>
  <property name="meta.media.aspect_ratio">1</property>
  <property name="meta.media.color_range">mpeg</property>
  <property name="meta.media.top_field_first">0</property>
  <property name="meta.media.progressive">1</property>
  <property name="kdenlive:remove">1</property>
 </producer>
 <playlist id="playlist8">
  <property name="kdenlive:playlistid">timeline_preview</property>
  <entry in="00:00:00.000" out="00:00:00.400" producer="producer5"/>
  <entry in="00:00:00.000" out="00:00:00.400" producer="producer6"/>
  <entry in="00:00:00.000" out="00:00:00.400" producer="producer7"/>
  <entry in="00:00:00.000" out="00:00:00.400" producer="producer8"/>
 </playlist>
 <tractor id="tractor4" in="00:00:00.000" out="00:00:36.400">
  <property name="kdenlive:duration">00:00:36.417</property>
  <property name="kdenlive:maxduration">2185</property>
  <property name="kdenlive:clipname">Sequence 1</property>
  <property name="kdenlive:description"/>
  <property name="kdenlive:uuid">{75de0124-eb83-4215-9585-30ef6f954fef}</property>
  <property name="kdenlive:producer_type">17</property>
  <property name="kdenlive:control_uuid">{75de0124-eb83-4215-9585-30ef6f954fef}</property>
  <property name="kdenlive:id">6</property>
  <property name="kdenlive:clip_type">0</property>
  <property name="kdenlive:file_hash">c31c1d9e9ae963760b67cce30fd8aa4b</property>
  <property name="kdenlive:folderid">2</property>
  <property name="kdenlive:sequenceproperties.activeTrack">2</property>
  <property name="kdenlive:sequenceproperties.audioTarget">1</property>
  <property name="kdenlive:sequenceproperties.disablepreview">0</property>
  <property name="kdenlive:sequenceproperties.documentuuid">{75de0124-eb83-4215-9585-30ef6f954fef}</property>
  <property name="kdenlive:sequenceproperties.hasAudio">1</property>
  <property name="kdenlive:sequenceproperties.hasVideo">1</property>
  <property name="kdenlive:sequenceproperties.position">1773</property>
  <property name="kdenlive:sequenceproperties.previewchunks">0-75</property>
  <property name="kdenlive:sequenceproperties.scrollPos">0</property>
  <property name="kdenlive:sequenceproperties.subtitlesList">[
    {
        "file": "C:/Users/Beqir/AppData/Roaming/kdenlive/.backup/Lab3Project-1733432264654-2024-12-11-16-32.kdenlive.srt",
        "id": 0,
        "name": "Subtitles"
    }
]
</property>
  <property name="kdenlive:sequenceproperties.tracks">4</property>
  <property name="kdenlive:sequenceproperties.tracksCount">3</property>
  <property name="kdenlive:sequenceproperties.verticalzoom">1</property>
  <property name="kdenlive:sequenceproperties.videoTarget">2</property>
  <property name="kdenlive:sequenceproperties.zonein">0</property>
  <property name="kdenlive:sequenceproperties.zoneout">75</property>
  <property name="kdenlive:sequenceproperties.zoom">11</property>
  <property name="kdenlive:sequenceproperties.groups">[
    {
        "children": [
            {
                "data": "1:360",
                "leaf": "clip",
                "type": "Leaf"
            },
            {
                "data": "2:360",
                "leaf": "clip",
                "type": "Leaf"
            }
        ],
        "type": "AVSplit"
    },
    {
        "children": [
            {
                "data": "1:1133",
                "leaf": "clip",
                "type": "Leaf"
            },
            {
                "data": "2:1133",
                "leaf": "clip",
                "type": "Leaf"
            }
        ],
        "type": "AVSplit"
    },
    {
        "children": [
            {
                "data": "1:1290",
                "leaf": "clip",
                "type": "Leaf"
            },
            {
                "data": "2:1290",
                "leaf": "clip",
                "type": "Leaf"
            }
        ],
        "type": "AVSplit"
    },
    {
        "children": [
            {
                "data": "1:1080",
                "leaf": "clip",
                "type": "Leaf"
            },
            {
                "data": "2:1080",
                "leaf": "clip",
                "type": "Leaf"
            }
        ],
        "type": "AVSplit"
    },
    {
        "children": [
            {
                "data": "1:1620",
                "leaf": "clip",
                "type": "Leaf"
            },
            {
                "data": "2:1620",
                "leaf": "clip",
                "type": "Leaf"
            }
        ],
        "type": "AVSplit"
    },
    {
        "children": [
            {
                "data": "2:825",
                "leaf": "clip",
                "type": "Leaf"
            },
            {
                "data": "1:825",
                "leaf": "clip",
                "type": "Leaf"
            }
        ],
        "type": "AVSplit"
    }
]
</property>
  <property name="kdenlive:sequenceproperties.guides">[
]
</property>
  <property name="kdenlive:sequenceproperties.dirtypreviewchunks"/>
  <track producer="producer0"/>
  <track producer="tractor0"/>
  <track producer="tractor1"/>
  <track producer="tractor2"/>
  <track producer="tractor3"/>
  <track hide="both" producer="playlist8"/>
  <transition id="transition2">
   <property name="a_track">0</property>
   <property name="b_track">1</property>
   <property name="mlt_service">mix</property>
   <property name="kdenlive_id">mix</property>
   <property name="internal_added">237</property>
   <property name="always_active">1</property>
   <property name="accepts_blanks">1</property>
   <property name="sum">1</property>
  </transition>
  <transition id="transition3">
   <property name="a_track">0</property>
   <property name="b_track">2</property>
   <property name="mlt_service">mix</property>
   <property name="kdenlive_id">mix</property>
   <property name="internal_added">237</property>
   <property name="always_active">1</property>
   <property name="accepts_blanks">1</property>
   <property name="sum">1</property>
  </transition>
  <transition id="transition4">
   <property name="a_track">0</property>
   <property name="b_track">3</property>
   <property name="compositing">0</property>
   <property name="distort">0</property>
   <property name="rotate_center">0</property>
   <property name="mlt_service">qtblend</property>
   <property name="kdenlive_id">qtblend</property>
   <property name="internal_added">237</property>
   <property name="always_active">1</property>
  </transition>
  <transition id="transition5">
   <property name="a_track">0</property>
   <property name="b_track">4</property>
   <property name="compositing">0</property>
   <property name="distort">0</property>
   <property name="rotate_center">0</property>
   <property name="mlt_service">qtblend</property>
   <property name="kdenlive_id">qtblend</property>
   <property name="internal_added">237</property>
   <property name="always_active">1</property>
  </transition>
  <filter id="filter20">
   <property name="window">75</property>
   <property name="max_gain">20dB</property>
   <property name="mlt_service">volume</property>
   <property name="internal_added">237</property>
   <property name="disable">1</property>
  </filter>
  <filter id="filter21">
   <property name="channel">-1</property>
   <property name="mlt_service">panner</property>
   <property name="internal_added">237</property>
   <property name="start">0.5</property>
   <property name="disable">1</property>
  </filter>
 </tractor>
 <playlist id="main_bin">
  <property name="kdenlive:folder.-1.2">Sequences</property>
  <property name="kdenlive:folder.-1.5">UNEDITED_VIDEOS</property>
  <property name="kdenlive:sequenceFolder">2</property>
  <property name="kdenlive:docproperties.activetimeline">{75de0124-eb83-4215-9585-30ef6f954fef}</property>
  <property name="kdenlive:docproperties.audioChannels">2</property>
  <property name="kdenlive:docproperties.binsort">0</property>
  <property name="kdenlive:docproperties.browserurl"/>
  <property name="kdenlive:docproperties.documentid">1733432264654</property>
  <property name="kdenlive:docproperties.enableTimelineZone">0</property>
  <property name="kdenlive:docproperties.enableexternalproxy">0</property>
  <property name="kdenlive:docproperties.enableproxy">0</property>
  <property name="kdenlive:docproperties.externalproxyparams"/>
  <property name="kdenlive:docproperties.generateimageproxy">0</property>
  <property name="kdenlive:docproperties.generateproxy">0</property>
  <property name="kdenlive:docproperties.guidesCategories">[
    {
        "color": "#9b59b6",
        "comment": "Category 1",
        "index": 0
    },
    {
        "color": "#3daee9",
        "comment": "Category 2",
        "index": 1
    },
    {
        "color": "#1abc9c",
        "comment": "Category 3",
        "index": 2
    },
    {
        "color": "#1cdc9a",
        "comment": "Category 4",
        "index": 3
    },
    {
        "color": "#c9ce3b",
        "comment": "Category 5",
        "index": 4
    },
    {
        "color": "#fdbc4b",
        "comment": "Category 6",
        "index": 5
    },
    {
        "color": "#f39c1f",
        "comment": "Category 7",
        "index": 6
    },
    {
        "color": "#f47750",
        "comment": "Category 8",
        "index": 7
    },
    {
        "color": "#da4453",
        "comment": "Category 9",
        "index": 8
    }
]
</property>
  <property name="kdenlive:docproperties.kdenliveversion">24.08.3</property>
  <property name="kdenlive:docproperties.opensequences">{75de0124-eb83-4215-9585-30ef6f954fef}</property>
  <property name="kdenlive:docproperties.previewextension">mkv</property>
  <property name="kdenlive:docproperties.previewparameters">c:v=h264_nvenc g=0 preset=fast qmin=10 qmax=30</property>
  <property name="kdenlive:docproperties.profile">uhd_2160p_60</property>
  <property name="kdenlive:docproperties.proxyextension"/>
  <property name="kdenlive:docproperties.proxyimageminsize">2000</property>
  <property name="kdenlive:docproperties.proxyimagesize">800</property>
  <property name="kdenlive:docproperties.proxyminsize">1000</property>
  <property name="kdenlive:docproperties.proxyparams"/>
  <property name="kdenlive:docproperties.proxyresize">640</property>
  <property name="kdenlive:docproperties.seekOffset">7500</property>
  <property name="kdenlive:docproperties.uuid">{75de0124-eb83-4215-9585-30ef6f954fef}</property>
  <property name="kdenlive:docproperties.version">1.1</property>
  <property name="kdenlive:expandedFolders">5</property>
  <property name="kdenlive:binZoom">4</property>
  <property name="kdenlive:extraBins">project_bin:-1:0</property>
  <property name="kdenlive:documentnotes"/>
  <property name="kdenlive:documentnotesversion">2</property>
  <property name="xml_retain">1</property>
  <entry in="00:00:00.000" out="00:00:00.400" producer="producer8"/>
  <entry in="00:00:00.000" out="00:00:41.267" producer="chain8"/>
  <entry in="00:00:00.000" out="00:00:25.567" producer="chain11"/>
  <entry in="00:00:00.000" out="00:00:36.567" producer="chain12"/>
  <entry in="00:00:00.000" out="00:00:18.567" producer="chain10"/>
  <entry in="00:00:00.000" out="00:00:28.567" producer="chain9"/>
  <entry in="00:00:00.000" out="00:00:06.983" producer="producer1"/>
  <entry in="00:00:00.000" out="00:00:05.733" producer="producer2"/>
  <entry in="00:00:00.000" out="00:00:36.400" producer="tractor4"/>
 </playlist>
 <tractor id="tractor5" in="00:00:00.000" out="00:00:36.400">
  <property name="kdenlive:projectTractor">1</property>
  <track in="00:00:00.000" out="00:00:36.400" producer="tractor4"/>
 </tractor>
</mlt>
